<svg width="40" height="40" viewBox="0 0 40 40" fill="none" xmlns="http://www.w3.org/2000/svg">
<g id="fi_9417292">
<path id="Vector" d="M35 16.25H36.25C36.94 16.25 37.5 15.69 37.5 15C37.5 14.31 36.94 13.75 36.25 13.75H33.2075L31.2775 10.5338C30.155 8.6625 28.1013 7.5 25.9188 7.5H14.0813C11.8988 7.5 9.845 8.6625 8.7225 10.5338L6.7925 13.75H3.75C3.06 13.75 2.5 14.31 2.5 15C2.5 15.69 3.06 16.25 3.75 16.25H5L4.25 17.25C3.12125 18.755 2.5 20.6187 2.5 22.5V28.75C2.5 30.8175 4.1825 32.5 6.25 32.5H8.75C10.8175 32.5 12.5 30.8175 12.5 28.75H27.5C27.5 30.8175 29.1825 32.5 31.25 32.5H33.75C35.8175 32.5 37.5 30.8175 37.5 28.75V22.5C37.5 20.6187 36.8787 18.7537 35.75 17.25L35 16.25ZM10.8663 11.8212C11.54 10.6987 12.7713 10 14.0813 10H25.92C27.23 10 28.4613 10.6975 29.135 11.8212L30.815 14.6212L29.9463 15.2C28.9163 15.8862 27.7175 16.25 26.4788 16.25H13.52C12.2825 16.25 11.0838 15.8875 10.0538 15.2013L9.185 14.6212L10.865 11.82L10.8663 11.8212ZM35.0013 28.75C35.0013 29.4387 34.44 30 33.7512 30H31.2512C30.5625 30 30.0012 29.4387 30.0012 28.75V27.5C30.0012 26.81 29.4412 26.25 28.7512 26.25H11.25C10.56 26.25 10 26.81 10 27.5V28.75C10 29.4387 9.43875 30 8.75 30H6.25C5.56125 30 5 29.4387 5 28.75V22.5C5 21.1562 5.44375 19.8238 6.25 18.75L7.79 16.6963L8.6675 17.2812C10.11 18.2425 11.7875 18.75 13.52 18.75H26.4788C28.2125 18.75 29.89 18.2413 31.3325 17.28L32.2087 16.6963L33.7488 18.75C34.555 19.8238 34.9987 21.1562 34.9987 22.5V28.75H35.0013Z" fill="black"/>
<path id="Vector_2" d="M31.25 23.75C31.9404 23.75 32.5 23.1904 32.5 22.5C32.5 21.8096 31.9404 21.25 31.25 21.25C30.5596 21.25 30 21.8096 30 22.5C30 23.1904 30.5596 23.75 31.25 23.75Z" fill="black"/>
<path id="Vector_3" d="M8.75 23.75C9.44036 23.75 10 23.1904 10 22.5C10 21.8096 9.44036 21.25 8.75 21.25C8.05964 21.25 7.5 21.8096 7.5 22.5C7.5 23.1904 8.05964 23.75 8.75 23.75Z" fill="black"/>
</g>
</svg>
