<svg width="12" height="12" viewBox="0 0 12 12" fill="none" xmlns="http://www.w3.org/2000/svg">
<path d="M11.1343 0.520595C10.9715 0.355688 10.7776 0.224753 10.5638 0.135386C10.35 0.0460186 10.1206 0 9.88885 0C9.65714 0 9.42772 0.0460186 9.21393 0.135386C9.00014 0.224753 8.80622 0.355688 8.64344 0.520595L7.52344 1.65809L9.99677 4.13143L11.1168 3.01143C11.2828 2.8498 11.4151 2.65681 11.506 2.44364C11.5969 2.23048 11.6445 2.00139 11.6461 1.76967C11.6478 1.53795 11.6034 1.30821 11.5155 1.09379C11.4276 0.879371 11.298 0.684537 11.1343 0.520595Z" fill="white"/>
<path d="M6.69514 2.48633L1.80097 7.38049C1.75709 7.4256 1.71978 7.47666 1.69014 7.53216L0.0684695 10.8047C0.0214235 10.893 -0.00210457 10.9919 0.000147774 11.092C0.00240012 11.1921 0.0303571 11.2899 0.0813304 11.376C0.132304 11.4621 0.204578 11.5337 0.291205 11.5838C0.377832 11.6339 0.475897 11.6609 0.575969 11.6622C0.664852 11.6625 0.752642 11.6426 0.832636 11.6038L4.10514 9.98216C4.16064 9.95251 4.2117 9.9152 4.2568 9.87133L9.15097 4.97716L6.69514 2.48633Z" fill="white"/>
<path d="M11.076 11.6628H5.82601C5.6713 11.6628 5.52293 11.6013 5.41353 11.4919C5.30413 11.3825 5.24268 11.2341 5.24268 11.0794C5.24268 10.9247 5.30413 10.7763 5.41353 10.6669C5.52293 10.5576 5.6713 10.4961 5.82601 10.4961H11.076C11.2307 10.4961 11.3791 10.5576 11.4885 10.6669C11.5979 10.7763 11.6593 10.9247 11.6593 11.0794C11.6593 11.2341 11.5979 11.3825 11.4885 11.4919C11.3791 11.6013 11.2307 11.6628 11.076 11.6628Z" fill="white"/>
</svg>
