<svg width="14" height="21" viewBox="0 0 14 21" fill="none" xmlns="http://www.w3.org/2000/svg">
<g clip-path="url(#clip0_16491_668)">
<path d="M7 16.8203C8.38447 16.8203 9.73785 16.4098 10.889 15.6406C12.0401 14.8714 12.9373 13.7782 13.4672 12.4991C13.997 11.22 14.1356 9.81255 13.8655 8.45468C13.5954 7.09682 12.9287 5.84954 11.9497 4.87057C10.9708 3.8916 9.7235 3.22492 8.36563 2.95482C7.00777 2.68472 5.6003 2.82335 4.32122 3.35316C3.04213 3.88297 1.94888 4.78018 1.17971 5.93132C0.410543 7.08247 0 8.43585 0 9.82032C0.0020073 11.6762 0.74015 13.4555 2.05247 14.7678C3.36479 16.0802 5.1441 16.8183 7 16.8203ZM7 5.73698C7.17306 5.73698 7.34223 5.7883 7.48612 5.88445C7.63002 5.98059 7.74217 6.11725 7.8084 6.27713C7.87462 6.43702 7.89195 6.61295 7.85819 6.78269C7.82443 6.95242 7.74109 7.10833 7.61872 7.2307C7.49635 7.35307 7.34044 7.43641 7.1707 7.47017C7.00097 7.50393 6.82504 7.4866 6.66515 7.42038C6.50527 7.35415 6.36861 7.242 6.27246 7.09811C6.17632 6.95421 6.125 6.78504 6.125 6.61198C6.125 6.37992 6.21719 6.15736 6.38128 5.99326C6.54538 5.82917 6.76794 5.73698 7 5.73698ZM6.41667 8.65365H7C7.30942 8.65365 7.60617 8.77657 7.82496 8.99536C8.04375 9.21415 8.16667 9.5109 8.16667 9.82032V13.3203C8.16667 13.475 8.10521 13.6234 7.99581 13.7328C7.88642 13.8422 7.73804 13.9037 7.58333 13.9037C7.42862 13.9037 7.28025 13.8422 7.17086 13.7328C7.06146 13.6234 7 13.475 7 13.3203V9.82032H6.41667C6.26196 9.82032 6.11358 9.75886 6.00419 9.64946C5.89479 9.54007 5.83333 9.39169 5.83333 9.23698C5.83333 9.08227 5.89479 8.9339 6.00419 8.8245C6.11358 8.71511 6.26196 8.65365 6.41667 8.65365Z" fill="#FFBB38"/>
</g>
<defs>
<clipPath id="clip0_16491_668">
<rect width="14" height="14" fill="white" transform="translate(0 2.82031)"/>
</clipPath>
</defs>
</svg>
