<svg width="14" height="20" viewBox="0 0 14 20" fill="none" xmlns="http://www.w3.org/2000/svg">
<g clip-path="url(#clip0_16801_2674)">
<path d="M9.79113 3.44293L10.5115 2.27043C10.6795 1.9951 11.0389 1.90993 11.3136 2.0791C11.5884 2.24768 11.6741 2.60643 11.505 2.88118L10.7845 4.05368C10.6749 4.23335 10.483 4.33193 10.287 4.33193C10.1825 4.33193 10.0775 4.30393 9.98247 4.2456C9.70772 4.07702 9.62197 3.71768 9.79113 3.44293ZM3.16563 4.0531C3.2753 4.23277 3.4678 4.33193 3.6638 4.33193C3.76763 4.33193 3.87263 4.30393 3.96772 4.24618C4.24247 4.0776 4.3288 3.71885 4.16022 3.4441L3.44097 2.27102C3.27238 1.99627 2.91305 1.91052 2.63888 2.07852C2.36413 2.2471 2.2778 2.60585 2.44638 2.8806L3.16563 4.0531ZM1.89047 5.3411L0.841632 4.83885C0.552299 4.69827 0.201716 4.82193 0.0640491 5.11302C-0.0753675 5.40352 0.0477158 5.75177 0.338216 5.8906L1.38705 6.39285C1.46813 6.43193 1.55388 6.4506 1.63847 6.4506C1.85605 6.4506 2.06488 6.32868 2.16463 6.11927C2.30405 5.82877 2.18097 5.47993 1.89047 5.3411ZM6.92055 4.33368C3.70405 4.38677 1.15488 7.87277 2.90138 11.2304C3.1668 11.7403 3.56055 12.1673 3.98347 12.5563C4.14388 12.7039 4.26813 12.8865 4.3743 13.0825H6.41655V10.0585C5.7393 9.81702 5.24988 9.17535 5.24988 8.41585C5.24988 8.09327 5.51063 7.83252 5.83322 7.83252C6.1558 7.83252 6.41655 8.09327 6.41655 8.41585C6.41655 8.73843 6.67788 8.99918 6.99988 8.99918C7.32188 8.99918 7.58322 8.73785 7.58322 8.41585C7.58322 8.09385 7.84397 7.83252 8.16655 7.83252C8.48913 7.83252 8.74988 8.09327 8.74988 8.41585C8.74988 9.17535 8.26047 9.81702 7.58322 10.0585V13.0825H9.60622C9.73922 12.8544 9.91072 12.6392 10.1353 12.4519C10.5197 12.1311 10.8814 11.7735 11.1036 11.3249C12.1169 9.27568 11.715 7.09052 10.2718 5.67185C9.37288 4.78752 8.1823 4.31443 6.92055 4.33368ZM4.66188 14.4119C4.61522 15.2671 5.25572 15.9998 6.11205 15.9998H7.8743C8.67988 15.9998 9.33263 15.347 9.33263 14.5414V14.2498H4.65547C4.65547 14.3046 4.66538 14.3559 4.66188 14.4119ZM13.9491 5.09143C13.8161 4.79802 13.4714 4.6656 13.178 4.79977L12.051 5.30843C11.757 5.44085 11.6263 5.78618 11.7593 6.0796C11.8567 6.29543 12.0685 6.42318 12.2913 6.42318C12.3712 6.42318 12.4529 6.40685 12.5305 6.37127L13.6575 5.8626C13.9515 5.73018 14.0821 5.38485 13.9491 5.09143Z" fill="#5C8FFC"/>
</g>
<defs>
<clipPath id="clip0_16801_2674">
<rect width="14" height="14" fill="white" transform="translate(0 2)"/>
</clipPath>
</defs>
</svg>
