<svg width="14" height="14" viewBox="0 0 14 14" fill="none" xmlns="http://www.w3.org/2000/svg">
<g id="Picker" clip-path="url(#clip0_9692_18855)">
<g id="_01_align_center">
<path id="Vector" d="M6.97521 14.0051L6.56858 13.6566C6.008 13.1872 1.11328 8.95993 1.11328 5.86779C1.11328 2.63034 3.73776 0.00585938 6.97521 0.00585938C10.2127 0.00585938 12.8371 2.63034 12.8371 5.86779C12.8371 8.95995 7.94241 13.1872 7.38416 13.6589L6.97521 14.0051ZM6.97521 1.27338C4.43899 1.27625 2.3837 3.33154 2.38083 5.86776C2.38083 7.81031 5.39225 10.9135 6.97521 12.3338C8.55819 10.9129 11.5696 7.80796 11.5696 5.86776C11.5667 3.33154 9.51145 1.27628 6.97521 1.27338Z" fill="#334257" fill-opacity="0.6"/>
<path id="Vector_2" d="M6.97498 8.19118C5.69169 8.19118 4.65137 7.15086 4.65137 5.86756C4.65137 4.58427 5.69169 3.54395 6.97498 3.54395C8.25828 3.54395 9.2986 4.58427 9.2986 5.86756C9.2986 7.15086 8.25831 8.19118 6.97498 8.19118ZM6.97498 4.70573C6.33334 4.70573 5.81318 5.22589 5.81318 5.86754C5.81318 6.50918 6.33334 7.02934 6.97498 7.02934C7.61663 7.02934 8.13679 6.50918 8.13679 5.86754C8.13679 5.22589 7.61666 4.70573 6.97498 4.70573Z" fill="#334257" fill-opacity="0.6"/>
</g>
</g>
<defs>
<clipPath id="clip0_9692_18855">
<rect width="14" height="14" fill="white"/>
</clipPath>
</defs>
</svg>
