<svg width="13" height="13" viewBox="0 0 13 13" fill="none" xmlns="http://www.w3.org/2000/svg">
<g id="phone-call (1) 1" clip-path="url(#clip0_9692_18861)">
<path id="Vector" d="M9.25043 12.5C5.17593 12.6145 -2.03707 5.3935 1.43143 1.469C1.44393 1.457 1.97743 0.992 1.97743 0.992C2.31227 0.682472 2.75253 0.512269 3.20849 0.516078C3.66446 0.519888 4.10182 0.697421 4.43143 1.0125L5.50743 2.1715C5.82438 2.50274 5.99966 2.94452 5.99602 3.40296C5.99238 3.86139 5.81011 4.30034 5.48793 4.6265L5.29393 4.8235C5.8717 6.10294 6.8939 7.12941 8.17093 7.7125L8.37643 7.5125C8.70974 7.19505 9.15239 7.01798 9.61268 7.01798C10.073 7.01798 10.5156 7.19505 10.8489 7.5125L11.9674 8.55C12.2987 8.87364 12.4889 9.31498 12.4966 9.77807C12.5043 10.2412 12.3288 10.6886 12.0084 11.023C12.0084 11.023 11.5434 11.556 11.5314 11.5685C11.2318 11.867 10.8759 12.1031 10.4843 12.263C10.0928 12.4229 9.67337 12.5034 9.25043 12.5ZM2.47543 2.55C0.0459329 5.559 7.82243 12.8865 10.4529 10.525C10.4529 10.525 10.9149 9.9955 10.9274 9.9835C10.9743 9.93662 11.0006 9.87304 11.0006 9.80675C11.0006 9.74046 10.9743 9.67688 10.9274 9.63L9.80843 8.593C9.65843 8.468 9.57393 8.4665 9.43493 8.573L8.86693 9.132C8.76448 9.23279 8.63522 9.30202 8.49454 9.33145C8.35387 9.36088 8.2077 9.34927 8.07343 9.298C7.07575 8.92674 6.16954 8.34532 5.41625 7.59314C4.66295 6.84097 4.08018 5.93563 3.70743 4.9385C3.65318 4.80315 3.63956 4.65491 3.66825 4.51194C3.69693 4.36897 3.76667 4.23745 3.86893 4.1335L4.42293 3.5705C4.44816 3.54809 4.46844 3.52066 4.48246 3.48996C4.49648 3.45927 4.50394 3.42599 4.50437 3.39224C4.50479 3.3585 4.49817 3.32504 4.48492 3.294C4.47167 3.26297 4.45209 3.23504 4.42743 3.212L3.35043 2.053C3.30278 2.01318 3.24171 1.99306 3.17971 1.99678C3.11772 2.0005 3.05949 2.02777 3.01693 2.073C3.00493 2.0855 2.47543 2.55 2.47543 2.55ZM12.5004 5.25C12.499 3.99067 11.9981 2.78333 11.1076 1.89285C10.2171 1.00237 9.00976 0.501456 7.75043 0.5C7.55152 0.5 7.36075 0.579018 7.2201 0.71967C7.07945 0.860322 7.00043 1.05109 7.00043 1.25C7.00043 1.44891 7.07945 1.63968 7.2201 1.78033C7.36075 1.92098 7.55152 2 7.75043 2C8.61206 2.00106 9.4381 2.34381 10.0474 2.95307C10.6566 3.56234 10.9994 4.38837 11.0004 5.25C11.0004 5.44891 11.0795 5.63968 11.2201 5.78033C11.3608 5.92098 11.5515 6 11.7504 6C11.9493 6 12.1401 5.92098 12.2808 5.78033C12.4214 5.63968 12.5004 5.44891 12.5004 5.25ZM10.0004 5.25C9.99977 4.65347 9.76251 4.08155 9.34069 3.65974C8.91888 3.23793 8.34697 3.00066 7.75043 3C7.55152 3 7.36075 3.07902 7.2201 3.21967C7.07945 3.36032 7.00043 3.55109 7.00043 3.75C7.00043 3.94891 7.07945 4.13968 7.2201 4.28033C7.36075 4.42098 7.55152 4.5 7.75043 4.5C7.94935 4.5 8.14011 4.57902 8.28076 4.71967C8.42142 4.86032 8.50043 5.05109 8.50043 5.25C8.50043 5.44891 8.57945 5.63968 8.7201 5.78033C8.86076 5.92098 9.05152 6 9.25043 6C9.44935 6 9.64011 5.92098 9.78076 5.78033C9.92142 5.63968 10.0004 5.44891 10.0004 5.25Z" fill="#334257" fill-opacity="0.6"/>
</g>
<defs>
<clipPath id="clip0_9692_18861">
<rect width="12" height="12" fill="white" transform="translate(0.5 0.5)"/>
</clipPath>
</defs>
</svg>
