<svg width="300" height="300" viewBox="0 0 300 300" fill="none" xmlns="http://www.w3.org/2000/svg">
<path d="M200.268 31.2066C197.477 31.6983 195.05 31.9818 192.623 32.2654C172.159 39.5759 158.963 59.9752 135.748 57.7674C100.115 54.5522 56.1635 43.2882 32.0998 76.6622C28.2328 82.6377 25.7524 89.3276 25.2699 96.2992C24.7874 103.271 26.3011 110.524 30.4112 117.628C40.5795 134.479 54.602 149.24 52.1124 170.028C48.3209 200.727 25.942 242.893 51.5121 266.123C54.3534 268.701 57.7858 271.053 61.9033 273.121C67.8456 275.945 74.7362 276.711 80.87 274.41C84.3147 273.069 87.7766 271.893 91.2556 270.881C117.621 264.455 143.653 262.159 170.452 265.987C184.233 268.283 198.016 272.877 212.401 270.406C214.718 269.985 217.005 269.418 219.25 268.708C223.966 267.212 228.424 264.999 232.469 262.149C234.529 260.286 236.399 258.224 238.052 255.993C242.884 249.443 245.418 241.761 245.194 233.429C245.076 231.017 244.676 228.627 244.002 226.308C241.083 217.117 236.913 208.078 233.416 198.992C229.919 189.906 227.098 180.801 226.882 171.555C225.927 162.823 229.829 154.168 233.837 146.327C243.461 130.445 256.981 119.846 262.38 102.818C266.961 85.8767 265.694 67.9946 256.522 52.6684C249.442 41.1963 237.699 31.9082 223.316 30.877C216.418 30.0391 208.766 30.0888 200.268 31.2066Z" fill="#DCE5F7" fill-opacity="0.15"/>
<g style="mix-blend-mode:multiply">
<path d="M177.62 248.655H108.898C101.124 248.655 93.6679 245.107 88.1713 238.787L83.2104 233.079C78.7082 227.904 76.1799 220.885 76.1799 213.56V91.2887C76.1799 84.8106 80.7485 79.5588 86.3851 79.5588H182.22L183.907 241.334C183.959 245.367 181.123 248.655 177.62 248.655Z" fill="#DCE5F7" fill-opacity="0.7"/>
</g>
<path d="M111.659 54.0715H192.718C195.746 54.0715 198.65 55.2744 200.791 57.4154C202.932 59.5565 204.135 62.4605 204.135 65.4884V233.309C204.135 236.337 202.932 239.241 200.791 241.382C198.65 243.523 195.746 244.726 192.718 244.726H111.659C108.631 244.726 105.727 243.523 103.586 241.382C101.445 239.241 100.242 236.337 100.242 233.309V65.4902C100.242 62.4623 101.445 59.5584 103.586 57.4173C105.727 55.2762 108.631 54.0734 111.659 54.0734V54.0715Z" fill="#083B45"/>
<path d="M106.138 54.5024L103.494 57.5076V59.5424L107.714 57.9441L106.138 54.5024Z" fill="#07343B"/>
<path d="M201.511 240.597L204.375 237.371L200.031 235.999L201.511 240.597Z" fill="#07343B"/>
<path d="M195.672 50.7405H114.61C108.304 50.7405 103.192 55.8528 103.192 62.1592V229.98C103.192 236.286 108.304 241.398 114.61 241.398H195.672C201.978 241.398 207.091 236.286 207.091 229.98V62.1592C207.091 55.8528 201.978 50.7405 195.672 50.7405Z" fill="#19455E"/>
<path d="M202.741 75.2278H107.541V216.907H202.741V75.2278Z" fill="#FFD871"/>
<path d="M164.948 66.9744H145.335C144.854 66.9744 144.392 66.7833 144.052 66.4432C143.712 66.103 143.521 65.6417 143.521 65.1606C143.521 64.9223 143.567 64.6862 143.658 64.4659C143.75 64.2457 143.883 64.0455 144.052 63.8769C144.22 63.7082 144.42 63.5745 144.64 63.4832C144.86 63.3919 145.096 63.345 145.335 63.345H164.948C165.186 63.3447 165.422 63.3915 165.643 63.4827C165.863 63.5738 166.064 63.7076 166.232 63.8762C166.401 64.0449 166.535 64.2451 166.626 64.4655C166.717 64.6859 166.764 64.9221 166.763 65.1606C166.763 65.399 166.716 65.635 166.625 65.8552C166.534 66.0753 166.4 66.2754 166.232 66.4438C166.063 66.6123 165.863 66.7458 165.642 66.8369C165.422 66.9279 165.186 66.9747 164.948 66.9744Z" fill="#238787"/>
<path d="M170.085 231.117H139.333C138.852 231.117 138.39 230.926 138.05 230.586C137.709 230.245 137.518 229.783 137.518 229.302C137.518 228.821 137.71 228.359 138.05 228.019C138.391 227.679 138.852 227.488 139.333 227.488H170.085C170.566 227.488 171.028 227.679 171.368 228.019C171.708 228.359 171.899 228.821 171.899 229.302C171.899 229.54 171.853 229.776 171.762 229.997C171.671 230.217 171.537 230.417 171.369 230.586C171.2 230.754 171 230.888 170.78 230.979C170.56 231.071 170.324 231.117 170.085 231.117Z" fill="#238787"/>
<g style="mix-blend-mode:multiply">
<path d="M213.031 184.238H190.518L161.156 200.509L167.57 184.238H62.0083C60.164 184.236 58.3961 183.501 57.093 182.196C55.7899 180.891 55.0582 179.122 55.0587 177.278V102.766C55.0585 101.852 55.2383 100.947 55.5879 100.103C55.9375 99.2582 56.45 98.4909 57.0962 97.8445C57.7424 97.1981 58.5097 96.6854 59.354 96.3355C60.1984 95.9857 61.1035 95.8057 62.0175 95.8057H213.04C214.886 95.8057 216.657 96.539 217.962 97.8444C219.268 99.1497 220.001 100.92 220.001 102.766V177.278C220.001 178.193 219.821 179.099 219.47 179.944C219.12 180.789 218.606 181.556 217.959 182.203C217.312 182.849 216.543 183.362 215.698 183.711C214.852 184.06 213.946 184.24 213.031 184.238Z" fill="#DCE5F7" fill-opacity="0.3"/>
</g>
<path d="M219.023 173.68H200.056L171.33 197.843L177.434 173.68H69.8711C68.048 173.68 66.2996 172.955 65.0104 171.666C63.7213 170.377 62.9971 168.629 62.9971 166.806V93.2166C62.9971 91.3935 63.7213 89.645 65.0104 88.3559C66.2996 87.0668 68.048 86.3425 69.8711 86.3425H219.027C220.85 86.3425 222.598 87.0668 223.888 88.3559C225.177 89.645 225.901 91.3935 225.901 93.2166V166.806C225.901 167.709 225.723 168.603 225.377 169.437C225.032 170.271 224.525 171.029 223.886 171.668C223.248 172.306 222.489 172.812 221.655 173.157C220.82 173.503 219.926 173.68 219.023 173.68Z" fill="#0461A5"/>
<path d="M231.099 82.9709C230.839 82.9712 230.584 82.8942 230.367 82.7495C230.15 82.6049 229.981 82.3991 229.881 82.1584C229.782 81.9176 229.756 81.6526 229.807 81.397C229.857 81.1414 229.983 80.9067 230.168 80.7226L235.003 75.8888C235.125 75.7629 235.27 75.6625 235.43 75.5934C235.591 75.5243 235.764 75.4879 235.939 75.4864C236.114 75.4848 236.287 75.5181 236.449 75.5843C236.611 75.6505 236.758 75.7483 236.882 75.872C237.005 75.9956 237.103 76.1427 237.169 76.3046C237.236 76.4664 237.269 76.6399 237.267 76.8148C237.266 76.9896 237.229 77.1625 237.16 77.3231C237.091 77.4838 236.991 77.6291 236.865 77.7505L232.031 82.5861C231.784 82.8327 231.449 82.9711 231.099 82.9709Z" fill="#9CBAF7"/>
<path d="M240.636 89.7915H234.655C234.314 89.7788 233.991 89.6344 233.755 89.3887C233.518 89.143 233.386 88.8151 233.386 88.474C233.386 88.1328 233.518 87.805 233.755 87.5593C233.991 87.3136 234.314 87.1692 234.655 87.1564H240.636C240.813 87.1498 240.99 87.179 241.156 87.2422C241.321 87.3054 241.472 87.4014 241.6 87.5244C241.728 87.6474 241.829 87.7949 241.899 87.9581C241.968 88.1212 242.004 88.2967 242.004 88.474C242.004 88.6513 241.968 88.8267 241.899 88.9899C241.829 89.153 241.728 89.3005 241.6 89.4235C241.472 89.5465 241.321 89.6425 241.156 89.7057C240.99 89.769 240.813 89.7981 240.636 89.7915Z" fill="#9CBAF7"/>
<path d="M224.286 79.4153C223.936 79.4148 223.601 79.2758 223.354 79.0286C223.107 78.7814 222.968 78.4464 222.967 78.0968V72.1177C222.961 71.9406 222.99 71.7639 223.053 71.5982C223.116 71.4326 223.212 71.2814 223.335 71.1538C223.458 71.0261 223.606 70.9245 223.769 70.8551C223.932 70.7858 224.108 70.75 224.285 70.75C224.462 70.75 224.638 70.7858 224.801 70.8551C224.964 70.9245 225.112 71.0261 225.235 71.1538C225.358 71.2814 225.454 71.4326 225.517 71.5982C225.58 71.7639 225.609 71.9406 225.603 72.1177V78.0968C225.603 78.4462 225.464 78.7813 225.217 79.0285C224.97 79.2757 224.635 79.4148 224.286 79.4153Z" fill="#9CBAF7"/>
<path d="M111.451 119.735H108.467V121.21H111.451V119.735Z" fill="#D4D4D9"/>
<path d="M112.434 121.057H107.484V122.497H112.434V121.057Z" fill="#FEFEFF"/>
<path d="M107.484 119.811H112.434V116.573C112.455 114.666 112.098 112.774 111.384 111.006C110.669 109.238 109.61 107.629 108.269 106.273C106.928 104.917 105.332 103.84 103.572 103.105C101.812 102.37 99.9236 101.992 98.0165 101.992C96.1093 101.992 94.2211 102.37 92.4612 103.105C90.7013 103.84 89.1046 104.917 87.7637 106.273C86.4228 107.629 85.3642 109.238 84.6493 111.006C83.9345 112.774 83.5775 114.666 83.599 116.573V127.867H88.5488V116.573C88.5835 114.085 89.5962 111.711 91.368 109.963C93.1398 108.216 95.5281 107.237 98.0165 107.237C100.505 107.237 102.893 108.216 104.665 109.963C106.437 111.711 107.449 114.085 107.484 116.573V119.811Z" fill="#FEFEFF"/>
<path d="M83.3909 126.491H112.642C113.091 126.491 113.522 126.67 113.84 126.987C114.158 127.305 114.336 127.736 114.336 128.185V138.066C114.336 142.395 112.617 146.546 109.556 149.607C106.495 152.668 102.344 154.387 98.0155 154.387C93.687 154.387 89.5358 152.668 86.4751 149.607C83.4144 146.546 81.6949 142.395 81.6949 138.066V128.185C81.6949 127.736 81.8734 127.305 82.1911 126.987C82.5088 126.67 82.9398 126.491 83.3891 126.491H83.3909Z" fill="#FCB900"/>
<g style="mix-blend-mode:multiply" opacity="0.85">
<path d="M101.535 136.702C101.539 136.08 101.378 135.468 101.068 134.929C100.759 134.389 100.312 133.941 99.7734 133.631C99.2346 133.32 98.623 133.158 98.0011 133.16C97.3792 133.163 96.769 133.33 96.2328 133.645C95.6966 133.96 95.2534 134.412 94.9485 134.954C94.6436 135.496 94.4878 136.109 94.497 136.731C94.5062 137.353 94.6801 137.961 95.0009 138.494C95.3217 139.027 95.778 139.465 96.3233 139.764V143.882C96.3158 144.109 96.354 144.335 96.4358 144.547C96.5175 144.759 96.641 144.952 96.799 145.116C96.9569 145.279 97.1461 145.409 97.3553 145.497C97.5644 145.586 97.7893 145.632 98.0165 145.632C98.2436 145.632 98.4685 145.586 98.6776 145.497C98.8868 145.409 99.076 145.279 99.234 145.116C99.3919 144.952 99.5154 144.759 99.5972 144.547C99.6789 144.335 99.7171 144.109 99.7097 143.882V139.764C100.26 139.464 100.72 139.022 101.041 138.483C101.362 137.944 101.533 137.329 101.535 136.702Z" fill="#301300"/>
</g>
<mask id="mask0_8143_339" style="mask-type:luminance" maskUnits="userSpaceOnUse" x="81" y="102" width="34" height="53">
<path d="M114.336 127.78V138.066C114.336 142.395 112.617 146.546 109.557 149.606C106.496 152.667 102.346 154.387 98.0174 154.387C93.6889 154.387 89.5377 152.668 86.477 149.607C83.4163 146.546 81.6968 142.395 81.6968 138.066V127.78C81.6968 127.438 81.8326 127.111 82.0743 126.869C82.3161 126.627 82.6439 126.491 82.9858 126.491H83.6008V116.573C83.6029 114.597 84.0107 112.643 84.799 110.831C85.5872 109.019 86.7392 107.388 88.1834 106.039C89.6277 104.691 91.3335 103.653 93.1951 102.991C95.0568 102.328 97.0347 102.055 99.0062 102.188C106.414 102.685 112.642 108.869 112.436 117.083V119.811H107.484V116.573C107.449 114.085 106.437 111.711 104.665 109.963C102.893 108.216 100.505 107.237 98.0164 107.237C95.5281 107.237 93.1397 108.216 91.368 109.963C89.5962 111.711 88.5834 114.085 88.5487 116.573V126.491H113.04C113.21 126.49 113.378 126.523 113.535 126.587C113.693 126.652 113.835 126.746 113.956 126.866C114.076 126.986 114.172 127.128 114.237 127.285C114.303 127.442 114.336 127.61 114.336 127.78ZM107.484 122.508H112.434V121.057H107.484V122.508Z" fill="white"/>
</mask>
<g mask="url(#mask0_8143_339)">
<g style="mix-blend-mode:multiply" opacity="0.1">
<path d="M114.338 126.491H98.0173V154.387H114.338V126.491Z" fill="#E70013"/>
</g>
</g>
<path d="M192.367 145.578H142.118C134.347 145.578 128.049 139.149 128.049 131.215V130.925C128.049 122.994 134.347 116.562 142.118 116.562H192.367C200.136 116.562 206.435 122.991 206.435 130.925V131.216C206.435 139.149 200.136 145.578 192.367 145.578Z" fill="#E8E8E8"/>
<path d="M192.818 145.578H144.184C136.663 145.578 130.568 139.731 130.568 132.52V132.257C130.568 125.046 136.663 119.201 144.184 119.201H192.814C200.334 119.201 206.441 125.046 206.441 132.257V132.52C206.435 139.731 200.347 145.578 192.818 145.578Z" fill="white"/>
<path d="M145.499 124.313H148.946L148.461 129.37L152.632 126.548L154.312 129.637L149.817 131.631L154.312 133.603L152.638 136.686L148.461 133.872L148.946 138.93H145.499L146.003 133.872L141.832 136.693L140.158 133.61L144.653 131.634L140.158 129.637L141.832 126.552L146.003 129.373L145.499 124.313Z" fill="#707070"/>
<path d="M166.598 124.313H170.045L169.561 129.37L173.731 126.548L175.405 129.637L170.912 131.631L175.405 133.607L173.731 136.689L169.561 133.872L170.045 138.93H166.598L167.102 133.872L162.931 136.693L161.258 133.61L165.752 131.634L161.258 129.637L162.931 126.552L167.102 129.373L166.598 124.313Z" fill="#707070"/>
<path d="M187.697 124.313H191.14L190.656 129.37L194.829 126.548L196.501 129.633L192.008 131.627L196.501 133.603L194.829 136.686L190.66 133.872L191.144 138.93H187.697L188.194 133.872L184.023 136.693L182.349 133.61L186.844 131.634L182.357 129.637L184.03 126.552L188.194 129.37L187.697 124.313Z" fill="#707070"/>
</svg>
