<svg width="19" height="18" viewBox="0 0 19 18" fill="none" xmlns="http://www.w3.org/2000/svg">
<g clip-path="url(#clip0_15788_2271)">
<path d="M10.1047 4.08058L13.0017 6.65453C14.145 7.67172 14.7174 8.17995 14.7174 8.83474C14.7174 9.49026 14.145 9.99849 13.0017 11.015L10.1047 13.5889C9.58261 14.0534 9.32157 14.286 9.10646 14.189C8.89136 14.092 8.89136 13.7435 8.89136 13.0442V11.3351C6.26636 11.3351 3.42261 12.5848 2.32886 14.6681C2.32886 8.00203 6.2175 6.33516 8.89136 6.33516V4.62526C8.89136 3.92672 8.89136 3.57745 9.10646 3.48047C9.32157 3.38422 9.58261 3.6161 10.1054 4.08058H10.1047Z" stroke="white" stroke-width="1.34394" stroke-linecap="round" stroke-linejoin="round"/>
<path opacity="0.5" d="M12.7449 3.36719L16.5482 6.89927C16.8422 7.17228 17.075 7.50445 17.2314 7.87392C17.3877 8.24338 17.4641 8.64177 17.4554 9.04286C17.4467 9.44396 17.3532 9.83867 17.181 10.201C17.0088 10.5634 16.7618 10.8852 16.4563 11.1452L12.7449 14.3047" stroke="white" stroke-width="1.34394" stroke-linecap="round"/>
</g>
<defs>
<clipPath id="clip0_15788_2271">
<rect width="17.5" height="17.5" fill="white" transform="translate(0.869873 0.0839844)"/>
</clipPath>
</defs>
</svg>
