<svg width="500" height="280" viewBox="0 0 500 280" fill="none" xmlns="http://www.w3.org/2000/svg">
<g clip-path="url(#clip0_333_76)">
<path d="M411.52 62.8644C411.224 60.9662 409.449 59.6665 407.55 59.9629C405.655 60.2593 404.358 62.0436 404.654 63.9418C405.155 67.1854 405.786 77.3435 402.288 81.4308C401.531 82.3143 400.616 82.8445 399.467 83.0554L399.785 63.7081C399.831 60.8978 397.572 58.5948 394.762 58.5948C391.952 58.5948 389.671 60.9263 389.74 63.7537L390.65 100.47C389.444 100.276 388.494 99.7463 387.709 98.8285C384.211 94.7413 384.848 84.5831 385.343 81.3396C385.639 79.4413 384.342 77.6571 382.447 77.3606C380.548 77.0642 378.773 78.3639 378.477 80.2622C378.227 81.8583 376.219 96.0866 382.425 103.349C384.558 105.846 387.447 107.265 390.82 107.482L391.213 123.466H398.795L399.347 90.0726C402.646 89.8161 405.468 88.4081 407.567 85.9512C413.772 78.6831 411.764 64.4605 411.514 62.8644H411.52Z" fill="#BDBDBD"/>
<path d="M87.8319 93.9944C87.6442 92.7859 86.5123 91.9537 85.3007 92.1475C84.0948 92.3356 83.2643 93.47 83.4577 94.6842C83.7762 96.7535 84.1801 103.229 81.9503 105.834C81.4668 106.399 80.8866 106.735 80.1528 106.872L80.3576 94.536C80.386 92.746 78.9469 91.2753 77.1551 91.2753C75.3633 91.2753 73.9128 92.7631 73.9527 94.5645L74.5329 117.97C73.765 117.845 73.1563 117.509 72.6614 116.927C70.4317 114.322 70.8355 107.847 71.1541 105.777C71.3418 104.569 70.517 103.429 69.3111 103.241C68.0995 103.052 66.9675 103.879 66.7798 105.088C66.6206 106.108 65.3407 115.172 69.294 119.806C70.6535 121.396 72.4965 122.303 74.6466 122.44L74.8969 132.626H79.7319L80.0846 111.341C82.1835 111.176 83.9867 110.281 85.3234 108.713C89.2767 104.084 87.9969 95.0148 87.8376 93.9944H87.8319Z" fill="#BDBDBD"/>
<path d="M249.997 280C388.067 280 499.994 240.291 499.994 191.307C499.994 142.323 388.067 102.614 249.997 102.614C111.928 102.614 0 142.323 0 191.307C0 240.291 111.928 280 249.997 280Z" fill="url(#paint0_linear_333_76)"/>
<path d="M228.9 31.7115L185.402 58.5891L272.841 75.3712L314.598 46.6638L228.9 31.7115V31.7115Z" fill="url(#paint1_linear_333_76)"/>
<path d="M185.402 58.5948L192.182 113.957L267.17 129.44L272.841 75.3769L185.402 58.5948Z" fill="url(#paint2_linear_333_76)"/>
<path d="M314.598 46.6638L272.841 75.3769L267.17 129.44L301.999 104.455L314.598 46.6638Z" fill="url(#paint3_linear_333_76)"/>
<path d="M317.078 46.1223C316.862 45.1134 316.054 44.3324 315.036 44.1557L229.332 29.2034C228.723 29.0951 228.092 29.2205 227.563 29.5455L184.065 56.423C183.178 56.976 182.717 58.0192 182.905 59.0509C183.092 60.0827 183.894 60.8922 184.924 61.0917L185.726 61.2456L272.363 77.8738C272.431 77.8852 272.505 77.8966 272.574 77.9023C272.665 77.9137 272.75 77.9194 272.841 77.9194C273.353 77.9194 273.854 77.7655 274.274 77.4691L313.808 50.2951L316.037 48.7616C316.885 48.1745 317.3 47.1313 317.078 46.1223V46.1223ZM192.29 57.3237L229.411 34.3794L308.023 48.1004L272.278 72.675L192.29 57.3237Z" fill="#8DBBFF"/>
<path d="M215.254 28.7303C214.759 28.7303 214.286 28.4396 214.082 27.9493L207.967 13.3619C207.694 12.7121 208.001 11.971 208.644 11.6974C209.292 11.4238 210.032 11.7316 210.305 12.3757L216.42 26.9632C216.693 27.613 216.385 28.3541 215.743 28.6277C215.583 28.6961 215.418 28.7246 215.254 28.7246V28.7303Z" fill="#32477B"/>
<path d="M227.426 18.2871C226.784 18.2871 226.232 17.7968 226.164 17.1413L224.622 1.39666C224.554 0.695507 225.066 0.0741586 225.76 0.00575333C226.454 -0.062652 227.079 0.450388 227.148 1.14584L228.689 16.8905C228.757 17.5916 228.245 18.213 227.552 18.2814C227.512 18.2814 227.466 18.2871 227.426 18.2871V18.2871Z" fill="#32477B"/>
<path d="M242.238 24.5804C242.136 24.5804 242.028 24.569 241.92 24.5405C241.243 24.3638 240.834 23.674 241.01 22.99L244.957 7.66717C245.134 6.98882 245.822 6.57839 246.505 6.7551C247.182 6.93181 247.591 7.62157 247.415 8.30562L243.467 23.6284C243.319 24.2042 242.807 24.5804 242.238 24.5804V24.5804Z" fill="#32477B"/>
<path d="M274.292 30.9306C274.092 30.9306 273.893 30.885 273.706 30.7824C273.086 30.4575 272.847 29.6879 273.171 29.0665L280.509 15.0549C280.833 14.4335 281.601 14.1941 282.221 14.519C282.841 14.8439 283.08 15.6135 282.756 16.2349L275.418 30.2465C275.19 30.6798 274.752 30.9249 274.292 30.9249V30.9306Z" fill="#32477B"/>
<path d="M266.078 1.81275C263.865 1.02609 261.669 1.1515 259.673 1.83555C258.615 2.20038 258.131 3.43168 258.66 4.41785L258.677 4.45206C259.098 5.24442 260.025 5.58644 260.884 5.31852C261.994 4.9708 263.103 4.92519 264.218 5.31852C266.243 6.04248 266.971 7.73551 266.311 9.59955C265.247 12.6094 260.23 13.1509 257.972 16.8961C257.761 17.2438 257.665 17.6258 257.665 18.002C257.665 18.8799 258.199 19.7178 259.098 20.0371C260.054 20.3791 261.146 20.0143 261.647 19.1307C263.74 15.471 269.223 15.2772 270.799 10.8366C272.312 6.56692 270.185 3.27206 266.078 1.81275V1.81275ZM258.08 22.836C256.43 22.2488 254.696 23.1039 254.064 24.8824C253.444 26.6325 254.252 28.3939 255.907 28.9811C257.557 29.5682 259.292 28.7131 259.912 26.9631C260.543 25.1846 259.735 23.4231 258.08 22.836Z" fill="#32477B"/>
<path d="M309.138 71.2441L308.364 74.6187C287.141 111.717 240.094 94.3024 227.489 88.6817C224.287 87.2509 220.487 90.9277 223.581 92.4896C224.503 92.9571 225.487 93.1224 225.487 93.1224C276.766 123.204 302.187 90.7852 305.838 86.0139C306.288 85.4268 306.669 84.8168 306.993 84.2069C315.042 73.8036 309.138 71.2441 309.138 71.2441V71.2441Z" fill="#8DBBFF"/>
</g>
<defs>
<linearGradient id="paint0_linear_333_76" x1="249.997" y1="62.414" x2="249.997" y2="201.687" gradientUnits="userSpaceOnUse">
<stop stop-color="#E5E5E5"/>
<stop offset="0.48" stop-color="#F3F3F3"/>
<stop offset="1" stop-color="white" stop-opacity="0"/>
</linearGradient>
<linearGradient id="paint1_linear_333_76" x1="185.402" y1="53.5442" x2="314.598" y2="53.5442" gradientUnits="userSpaceOnUse">
<stop stop-color="#4E9CFF"/>
<stop offset="0.98" stop-color="#171D87"/>
</linearGradient>
<linearGradient id="paint2_linear_333_76" x1="185.402" y1="94.0173" x2="272.841" y2="94.0173" gradientUnits="userSpaceOnUse">
<stop stop-color="#4E9CFF"/>
<stop offset="0.98" stop-color="#176AD4"/>
</linearGradient>
<linearGradient id="paint3_linear_333_76" x1="267.17" y1="88.0547" x2="314.598" y2="88.0547" gradientUnits="userSpaceOnUse">
<stop stop-color="#4E9CFF"/>
<stop offset="0.98" stop-color="#171D87"/>
</linearGradient>
<clipPath id="clip0_333_76">
<rect width="500" height="280" fill="white"/>
</clipPath>
</defs>
</svg>
