<svg width="36" height="28" viewBox="0 0 36 28" fill="none" xmlns="http://www.w3.org/2000/svg">
<path d="M1.03004 21.8985L1.26229 17.1563C1.31034 16.1182 1.98305 15.2212 2.93606 14.9139L4.34555 14.4571C4.89013 14.2827 5.35462 13.909 5.65894 13.4107L8.0775 9.40765C8.50996 8.6851 9.27877 8.24493 10.1036 8.24493H20.5547C21.2034 8.24493 21.82 8.519 22.2765 9.0007L26.3448 13.3692C26.7933 13.8509 27.41 14.1249 28.0667 14.1249H32.6075C33.9289 14.1249 34.994 15.2295 34.994 16.5998V21.8985H1.03805H1.03004Z" fill="#15A461"/>
<path d="M32.5915 14.1249H28.0506C27.402 14.1249 26.7853 13.8509 26.3288 13.3692L22.2605 9.0007C21.812 8.519 21.1954 8.24493 20.5387 8.24493H10.0956C9.27078 8.24493 8.50997 8.6851 8.06951 9.40765L5.65095 13.4107C5.34662 13.909 4.88213 14.2827 4.33756 14.4571L2.92807 14.9139C1.97506 15.2212 1.31035 16.1182 1.25429 17.1563L1.02205 21.8985H1.03807L1.25429 17.447C1.30235 16.4088 1.97506 15.5119 2.92807 15.2046L4.33756 14.7478C4.88213 14.5734 5.34662 14.1997 5.65095 13.7014L8.06951 9.69832C8.50196 8.97578 9.27078 8.53561 10.0956 8.53561H20.5467C21.1954 8.53561 21.812 8.80968 22.2685 9.29137L26.3368 13.6598C26.7853 14.1415 27.402 14.4156 28.0587 14.4156H32.5995C33.9209 14.4156 34.986 15.5202 34.986 16.8905V16.5998C34.97 15.2378 33.9048 14.1249 32.5915 14.1249Z" fill="#FF958D"/>
<path d="M1.2623 17.1313C1.2623 17.1397 1.2623 17.1563 1.25429 17.1646L1.02205 21.9068H34.97V17.1313H1.2623Z" fill="#039D55"/>
<path d="M15.9739 14.4654H25.2397C25.2317 14.4571 25.2317 14.4571 25.2237 14.4488L21.1553 10.0803C20.9872 9.89764 20.7469 9.78967 20.4986 9.78967H15.9739V14.4654Z" fill="#445C6C"/>
<path d="M14.5964 9.79797H10.0476C9.72725 9.79797 9.44695 9.96408 9.27076 10.2381L6.8522 14.2412C6.80415 14.3159 6.7561 14.3907 6.70004 14.4654H14.5884L14.5964 9.79797Z" fill="#445C6C"/>
<path d="M21.4436 10.3876L21.1553 10.072C20.9872 9.88934 20.7469 9.78137 20.4986 9.78137H15.9738V10.3793C15.9738 10.3876 21.4436 10.3876 21.4436 10.3876Z" fill="#334A56"/>
<path d="M14.5964 10.3876V9.78967H10.0476C9.72724 9.78967 9.44694 9.95577 9.27075 10.2298L9.17465 10.3876H14.5964Z" fill="#334A56"/>
<path d="M34.986 20.1046H33.2802V22.0729H34.986C35.0901 22.0729 35.1782 21.9816 35.1782 21.8736V20.3039C35.1782 20.196 35.0981 20.1046 34.986 20.1046Z" fill="#DBDFE0"/>
<path d="M1.01403 20.1046H2.71983V22.0729H1.01403C0.909916 22.0729 0.821823 21.9816 0.821823 21.8736V20.3039C0.821823 20.196 0.901908 20.1046 1.01403 20.1046Z" fill="#DBDFE0"/>
<path d="M11.353 21.8985C11.337 19.8139 9.70323 18.1363 7.68509 18.1363C5.66696 18.1363 4.04124 19.8139 4.01721 21.8985H11.353Z" fill="#039D55"/>
<path d="M7.69309 25.3866C9.54631 25.3866 11.0486 23.8286 11.0486 21.9068C11.0486 19.9849 9.54631 18.4269 7.69309 18.4269C5.83987 18.4269 4.33754 19.9849 4.33754 21.9068C4.33754 23.8286 5.83987 25.3866 7.69309 25.3866Z" fill="#445C6C"/>
<path d="M9.6792 21.9068C9.6792 23.0446 8.79026 23.9747 7.68509 23.9747C6.58793 23.9747 5.69098 23.0529 5.69098 21.9068C5.69098 20.769 6.57992 19.8388 7.68509 19.8388C8.79026 19.8388 9.6792 20.769 9.6792 21.9068Z" fill="#DBDFE0"/>
<path d="M8.22968 21.9068C8.22968 22.2224 7.98943 22.4715 7.68511 22.4715C7.38079 22.4715 7.14053 22.2224 7.14053 21.9068C7.14053 21.5912 7.38079 21.342 7.68511 21.342C7.98943 21.3503 8.22968 21.5995 8.22968 21.9068Z" fill="#BCBCBC"/>
<path d="M8.09353 20.7108C8.09353 20.9351 7.90933 21.1261 7.6931 21.1261C7.47687 21.1261 7.29268 20.9351 7.29268 20.7108C7.29268 20.4866 7.47687 20.2956 7.6931 20.2956C7.90933 20.2956 8.09353 20.4783 8.09353 20.7108Z" fill="#BCBCBC"/>
<path d="M8.09353 23.111C8.09353 23.3352 7.90933 23.5263 7.6931 23.5263C7.47687 23.5263 7.29268 23.3352 7.29268 23.111C7.29268 22.8868 7.47687 22.6958 7.6931 22.6958C7.90933 22.6875 8.09353 22.8785 8.09353 23.111Z" fill="#BCBCBC"/>
<path d="M8.88637 21.6742C8.69417 21.7905 8.44591 21.7158 8.33379 21.5248C8.22167 21.3254 8.29375 21.068 8.47794 20.9517C8.67014 20.8354 8.91841 20.9102 9.03052 21.1012C9.15065 21.3005 9.07858 21.558 8.88637 21.6742Z" fill="#BCBCBC"/>
<path d="M6.89226 22.8702C6.70006 22.9864 6.4518 22.9117 6.33968 22.7207C6.22756 22.5214 6.29964 22.2639 6.48383 22.1476C6.67603 22.0314 6.9243 22.1061 7.03641 22.2971C7.14853 22.5047 7.08446 22.7539 6.89226 22.8702Z" fill="#BCBCBC"/>
<path d="M6.89227 20.9434C7.08447 21.0596 7.14854 21.3171 7.03642 21.5164C6.9243 21.7157 6.67604 21.7822 6.48384 21.6659C6.29163 21.5496 6.22757 21.2922 6.33968 21.0929C6.4518 20.9018 6.70007 20.8354 6.89227 20.9434Z" fill="#BCBCBC"/>
<path d="M8.88638 22.1476C9.07858 22.2639 9.14265 22.5213 9.03053 22.7207C8.91841 22.92 8.67015 22.9864 8.47795 22.8702C8.28574 22.7539 8.22168 22.4964 8.33379 22.2971C8.45392 22.0978 8.70219 22.0313 8.88638 22.1476Z" fill="#BCBCBC"/>
<path d="M32.7836 21.8985C32.7676 19.8139 31.1339 18.1363 29.1158 18.1363C27.1056 18.1363 25.4719 19.8139 25.4479 21.8985H32.7836Z" fill="#039D55"/>
<path d="M29.1158 25.3866C30.969 25.3866 32.4713 23.8286 32.4713 21.9068C32.4713 19.9849 30.969 18.4269 29.1158 18.4269C27.2625 18.4269 25.7602 19.9849 25.7602 21.9068C25.7602 23.8286 27.2625 25.3866 29.1158 25.3866Z" fill="#445C6C"/>
<path d="M29.1158 23.9747C30.2171 23.9747 31.1099 23.0489 31.1099 21.9068C31.1099 20.7647 30.2171 19.8388 29.1158 19.8388C28.0144 19.8388 27.1216 20.7647 27.1216 21.9068C27.1216 23.0489 28.0144 23.9747 29.1158 23.9747Z" fill="#DBDFE0"/>
<path d="M29.1158 22.4715C29.4165 22.4715 29.6603 22.2187 29.6603 21.9068C29.6603 21.5949 29.4165 21.342 29.1158 21.342C28.815 21.342 28.5712 21.5949 28.5712 21.9068C28.5712 22.2187 28.815 22.4715 29.1158 22.4715Z" fill="#BCBCBC"/>
<path d="M29.1158 21.1261C29.3369 21.1261 29.5162 20.9402 29.5162 20.7108C29.5162 20.4815 29.3369 20.2956 29.1158 20.2956C28.8946 20.2956 28.7153 20.4815 28.7153 20.7108C28.7153 20.9402 28.8946 21.1261 29.1158 21.1261Z" fill="#BCBCBC"/>
<path d="M29.5242 23.111C29.5242 23.3352 29.34 23.5262 29.1238 23.5262C28.9075 23.5262 28.7233 23.3352 28.7233 23.111C28.7233 22.8868 28.9075 22.6957 29.1238 22.6957C29.34 22.6957 29.5242 22.8785 29.5242 23.111Z" fill="#BCBCBC"/>
<path d="M30.317 21.6742C30.1248 21.7905 29.8766 21.7158 29.7644 21.5248C29.6523 21.3254 29.7244 21.068 29.9086 20.9517C30.1008 20.8354 30.3491 20.9102 30.4612 21.1012C30.5813 21.3005 30.5092 21.558 30.317 21.6742Z" fill="#BCBCBC"/>
<path d="M28.3229 22.8702C28.1307 22.9864 27.8825 22.9117 27.7703 22.7207C27.6582 22.5214 27.7303 22.2639 27.9145 22.1476C28.1067 22.0314 28.355 22.1061 28.4671 22.2971C28.5792 22.5047 28.5151 22.7539 28.3229 22.8702Z" fill="#BCBCBC"/>
<path d="M28.3229 20.9434C28.5151 21.0596 28.5792 21.3171 28.4671 21.5164C28.355 21.7157 28.1067 21.7822 27.9145 21.6659C27.7223 21.5496 27.6582 21.2922 27.7703 21.0929C27.8825 20.9018 28.1227 20.8354 28.3229 20.9434Z" fill="#BCBCBC"/>
<path d="M30.317 22.1476C30.5092 22.2639 30.5733 22.5213 30.4612 22.7207C30.3491 22.92 30.1008 22.9864 29.9086 22.8702C29.7164 22.7539 29.6523 22.4964 29.7645 22.2971C29.8766 22.0978 30.1248 22.0313 30.317 22.1476Z" fill="#BCBCBC"/>
<path d="M1.99107 17.4304H1.23827L1.15018 19.1495H1.99107C2.15124 19.1495 2.28738 19.0166 2.28738 18.8422V17.7376C2.28738 17.5715 2.15925 17.4304 1.99107 17.4304Z" fill="#FBD984"/>
<path d="M32.9999 16.1929C32.9999 16.5915 33.7447 16.9071 34.6576 16.9071C34.7617 16.9071 34.8739 16.8988 34.978 16.8988V16.6082C34.978 16.2012 34.8819 15.8192 34.7137 15.487C34.6897 15.487 34.6736 15.487 34.6576 15.487C33.7367 15.4787 32.9999 15.8026 32.9999 16.1929Z" fill="#FBD984"/>
<g clip-path="url(#clip0_6458_89)">
<path d="M8.38983 11.8327C11.0436 11.8327 13.1949 9.60175 13.1949 6.84969C13.1949 4.09763 11.0436 1.86664 8.38983 1.86664C5.73606 1.86664 3.58475 4.09763 3.58475 6.84969C3.58475 9.60175 5.73606 11.8327 8.38983 11.8327Z" fill="#EAB14D"/>
<path d="M8.38984 1.86664C8.30406 1.86664 8.21883 1.86907 8.13416 1.87367C10.6691 2.01152 12.6836 4.18658 12.6836 6.84969C12.6836 9.5128 10.6691 11.6879 8.13416 11.8257C8.21883 11.8303 8.30406 11.8327 8.38984 11.8327C11.0436 11.8327 13.1949 9.60175 13.1949 6.84969C13.1949 4.09762 11.0436 1.86664 8.38984 1.86664Z" fill="#E49542"/>
<path d="M8.38984 10.7327C10.4578 10.7327 12.1342 8.99423 12.1342 6.8497C12.1342 4.70516 10.4578 2.96667 8.38984 2.96667C6.32189 2.96667 4.64549 4.70516 4.64549 6.8497C4.64549 8.99423 6.32189 10.7327 8.38984 10.7327Z" fill="#F4FBFF"/>
<path d="M8.38983 2.96667C8.28613 2.96667 8.18347 2.97125 8.08191 2.97981C10.0058 3.14223 11.5184 4.8127 11.5184 6.8497C11.5184 8.88669 10.0058 10.5571 8.08191 10.7196C8.18347 10.7282 8.28613 10.7327 8.38983 10.7327C10.4578 10.7327 12.1342 8.99424 12.1342 6.84972C12.1342 4.7052 10.4578 2.96667 8.38983 2.96667Z" fill="#DAF1F4"/>
<path d="M8.38983 4.16177C8.30974 4.16177 8.24481 4.09444 8.24481 4.01138V3.79065C8.24481 3.70759 8.30974 3.64026 8.38983 3.64026C8.46992 3.64026 8.53486 3.70759 8.53486 3.79065V4.01138C8.53486 4.09444 8.46992 4.16177 8.38983 4.16177Z" fill="#2B4D66"/>
<path d="M10.3173 4.99648C10.2801 4.99648 10.243 4.98178 10.2147 4.95243C10.1581 4.89368 10.1581 4.79848 10.2147 4.73973L10.3652 4.58366C10.4219 4.52492 10.5137 4.52494 10.5703 4.58366C10.627 4.64241 10.627 4.73761 10.5703 4.79636L10.4198 4.95245C10.3915 4.98178 10.3544 4.99648 10.3173 4.99648Z" fill="#2B4D66"/>
<path d="M11.3238 7.00005H11.111C11.0309 7.00005 10.966 6.93272 10.966 6.84967C10.966 6.76661 11.0309 6.69928 11.111 6.69928H11.3238C11.4039 6.69928 11.4689 6.76661 11.4689 6.84967C11.4689 6.93272 11.4039 7.00005 11.3238 7.00005Z" fill="#2B4D66"/>
<path d="M10.4566 9.15498C10.4195 9.15498 10.3823 9.14029 10.354 9.11094L10.2035 8.95486C10.1469 8.89612 10.1469 8.80092 10.2035 8.74215C10.2602 8.68344 10.352 8.68344 10.4086 8.74215L10.5591 8.89822C10.6158 8.95697 10.6158 9.05217 10.5591 9.11094C10.5308 9.14029 10.4937 9.15498 10.4566 9.15498Z" fill="#2B4D66"/>
<path d="M8.37402 10.0428C8.29393 10.0428 8.229 9.97548 8.229 9.89242V9.67169C8.229 9.58861 8.29393 9.5213 8.37402 9.5213C8.45411 9.5213 8.51904 9.58863 8.51904 9.67169V9.89242C8.51904 9.97548 8.45411 10.0428 8.37402 10.0428Z" fill="#2B4D66"/>
<path d="M6.2961 9.14339C6.25899 9.14339 6.22186 9.1287 6.19356 9.09932C6.13691 9.0406 6.13693 8.94537 6.19356 8.88663L6.34407 8.73056C6.40072 8.67185 6.49252 8.67183 6.54917 8.73058C6.6058 8.7893 6.6058 8.88453 6.54915 8.94327L6.39864 9.09934C6.37033 9.12872 6.3332 9.14339 6.2961 9.14339Z" fill="#2B4D66"/>
<path d="M5.65286 6.9837H5.44001C5.35992 6.9837 5.295 6.91637 5.295 6.83331C5.295 6.75025 5.35992 6.68292 5.44001 6.68292H5.65286C5.73296 6.68292 5.79788 6.75025 5.79788 6.83331C5.7979 6.91637 5.73296 6.9837 5.65286 6.9837Z" fill="#2B4D66"/>
<path d="M6.4578 4.98488C6.42069 4.98488 6.38358 4.97021 6.35526 4.94083L6.20474 4.78476C6.14811 4.72602 6.1481 4.63081 6.20472 4.57207C6.26137 4.51334 6.35317 4.51332 6.40982 4.57205L6.56034 4.72814C6.61697 4.78687 6.61699 4.88209 6.56036 4.94083C6.53201 4.97019 6.49491 4.98488 6.4578 4.98488Z" fill="#2B4D66"/>
<path d="M8.38983 7.00009H7.15815C7.07806 7.00009 7.01314 6.93275 7.01314 6.84969C7.01314 6.76663 7.07806 6.6993 7.15815 6.6993H8.2448V4.78595C8.2448 4.70289 8.30972 4.63556 8.38981 4.63556C8.4699 4.63556 8.53483 4.70289 8.53483 4.78595V6.84969C8.53485 6.93275 8.46992 7.00009 8.38983 7.00009Z" fill="#2B4D66"/>
<path d="M9.87764 7.79355C9.8553 7.79355 9.83267 7.78817 9.81144 7.77686L8.32351 6.98339C8.25228 6.94541 8.22424 6.85475 8.26086 6.78088C8.29748 6.70701 8.38491 6.67791 8.45616 6.7159L9.94409 7.50936C10.0153 7.54735 10.0434 7.63802 10.0067 7.71187C9.98101 7.76374 9.93025 7.79355 9.87764 7.79355Z" fill="#DA4A54"/>
<path d="M8.38983 7.25112C8.60361 7.25112 8.77691 7.0714 8.77691 6.84971C8.77691 6.62802 8.60361 6.4483 8.38983 6.4483C8.17606 6.4483 8.00276 6.62802 8.00276 6.84971C8.00276 7.0714 8.17606 7.25112 8.38983 7.25112Z" fill="#365E7D"/>
</g>
<defs>
<clipPath id="clip0_6458_89">
<rect width="9.61017" height="9.9661" fill="white" transform="translate(3.58475 1.86664)"/>
</clipPath>
</defs>
</svg>
