<svg width="50" height="50" viewBox="0 0 50 50" fill="none" xmlns="http://www.w3.org/2000/svg">
<path d="M22.5542 35.921V21.1265C22.5542 20.941 22.4037 20.7905 22.2183 20.7905C22.0328 20.7905 21.8823 20.941 21.8823 21.1265V35.921H22.5542Z" fill="#2266D3"/>
<path d="M22.2182 21.4624C23.0157 21.4624 23.6622 20.8159 23.6622 20.0184C23.6622 19.2209 23.0157 18.5743 22.2182 18.5743C21.4207 18.5743 20.7742 19.2209 20.7742 20.0184C20.7742 20.8159 21.4207 21.4624 22.2182 21.4624Z" fill="#FFC91D"/>
<path d="M22.7278 18.6689C22.7878 18.8277 22.8222 18.999 22.8222 19.1787C22.8222 19.9762 22.1757 20.6228 21.3782 20.6228C21.1985 20.6228 21.0271 20.5885 20.8684 20.5284C21.0747 21.0739 21.6002 21.4626 22.218 21.4626C23.0156 21.4626 23.6621 20.8161 23.6621 20.0186C23.6621 19.4008 23.2734 18.875 22.7278 18.6689Z" fill="#FFA91A"/>
<path d="M27.1304 35.921V28.4116L28.6785 27.2247C28.7615 27.1613 28.8101 27.0627 28.8101 26.9582V23.9028C28.8101 23.7174 28.6596 23.5669 28.4741 23.5669C28.2887 23.5669 28.1382 23.7174 28.1382 23.9028V26.7924L26.59 27.9793C26.507 28.0429 26.4585 28.1414 26.4585 28.2458V35.9208L27.1304 35.921Z" fill="#2266D3"/>
<path d="M28.4741 24.2388C29.2716 24.2388 29.9181 23.5922 29.9181 22.7947C29.9181 21.9972 29.2716 21.3507 28.4741 21.3507C27.6765 21.3507 27.03 21.9972 27.03 22.7947C27.03 23.5922 27.6765 24.2388 28.4741 24.2388Z" fill="#FFC91D"/>
<path d="M28.9839 21.4451C29.0439 21.6038 29.0783 21.7751 29.0783 21.9549C29.0783 22.7524 28.4318 23.3989 27.6343 23.3989C27.4546 23.3989 27.2832 23.3646 27.1245 23.3045C27.3308 23.85 27.8564 24.2387 28.4741 24.2387C29.2717 24.2387 29.9182 23.5922 29.9182 22.7947C29.9182 22.1769 29.5295 21.6513 28.9839 21.4451Z" fill="#FFA91A"/>
<path d="M32.0105 35.921V30.7152L34.2206 29.1893C34.3115 29.1265 34.3658 29.0232 34.3658 28.9129V20.1172C34.3658 19.9318 34.2153 19.7812 34.0298 19.7812C33.8444 19.7812 33.6939 19.9318 33.6939 20.1172V28.7365L31.4838 30.2623C31.3929 30.3252 31.3386 30.4285 31.3386 30.5388V35.9209L32.0105 35.921Z" fill="#2266D3"/>
<path d="M34.0297 20.4531C34.8272 20.4531 35.4737 19.8066 35.4737 19.0091C35.4737 18.2116 34.8272 17.5651 34.0297 17.5651C33.2322 17.5651 32.5857 18.2116 32.5857 19.0091C32.5857 19.8066 33.2322 20.4531 34.0297 20.4531Z" fill="#FFC91D"/>
<path d="M34.5393 17.6594C34.5993 17.8182 34.6337 17.9895 34.6337 18.1692C34.6337 18.9667 33.9872 19.6132 33.1897 19.6132C33.01 19.6132 32.8387 19.579 32.6799 19.5188C32.8862 20.0644 33.4118 20.4531 34.0296 20.4531C34.8271 20.4531 35.4736 19.8066 35.4736 19.0091C35.4736 18.3913 35.0849 17.8657 34.5393 17.6594Z" fill="#FFA91A"/>
<path d="M15.7577 27.2247L17.3059 28.4116V35.921H17.9778V28.246C17.9778 28.1415 17.9291 28.0431 17.8463 27.9794L16.2981 26.7926V23.9028C16.2981 23.7174 16.1476 23.5669 15.9622 23.5669C15.7767 23.5669 15.6262 23.7174 15.6262 23.9028V26.9582C15.6262 27.0627 15.6749 27.1613 15.7577 27.2247Z" fill="#2266D3"/>
<path d="M15.9621 24.2388C16.7596 24.2388 17.4061 23.5922 17.4061 22.7947C17.4061 21.9972 16.7596 21.3507 15.9621 21.3507C15.1646 21.3507 14.5181 21.9972 14.5181 22.7947C14.5181 23.5922 15.1646 24.2388 15.9621 24.2388Z" fill="#FFC91D"/>
<path d="M16.472 21.4451C16.5319 21.6038 16.5664 21.7751 16.5664 21.9549C16.5664 22.7524 15.9198 23.3989 15.1223 23.3989C14.9426 23.3989 14.7713 23.3646 14.6125 23.3045C14.8188 23.85 15.3444 24.2387 15.9622 24.2387C16.7597 24.2387 17.4062 23.5922 17.4062 22.7947C17.4062 22.1769 17.0175 21.6513 16.472 21.4451Z" fill="#FFA91A"/>
<path d="M10.2159 29.1892L12.4261 30.715V35.9209H13.0979V30.5388C13.0979 30.4285 13.0437 30.3252 12.9528 30.2623L10.7427 28.7365V20.1172C10.7427 19.9318 10.5922 19.7812 10.4067 19.7812C10.2213 19.7812 10.0708 19.9318 10.0708 20.1172V28.9129C10.0708 29.0232 10.1249 29.1265 10.2159 29.1892Z" fill="#2266D3"/>
<path d="M10.4067 20.4531C11.2042 20.4531 11.8507 19.8066 11.8507 19.0091C11.8507 18.2116 11.2042 17.5651 10.4067 17.5651C9.60916 17.5651 8.96265 18.2116 8.96265 19.0091C8.96265 19.8066 9.60916 20.4531 10.4067 20.4531Z" fill="#FFC91D"/>
<path d="M10.9165 17.6594C10.9765 17.8182 11.0109 17.9895 11.0109 18.1692C11.0109 18.9667 10.3644 19.6132 9.56691 19.6132C9.38719 19.6132 9.21586 19.579 9.05713 19.5188C9.26339 20.0644 9.78897 20.4531 10.4068 20.4531C11.2043 20.4531 11.8508 19.8066 11.8508 19.0091C11.8506 18.3913 11.4619 17.8657 10.9165 17.6594Z" fill="#FFA91A"/>
<path d="M41.2008 31.1015C37.6147 30.8966 34.4784 32.9235 33.0502 35.9209H11.3887C11.2984 35.9209 11.2117 35.9573 11.1485 36.022L7.9185 39.3263C7.79084 39.4568 7.79084 39.6654 7.9185 39.7959L11.1485 43.1C11.2117 43.1647 11.2984 43.2011 11.3887 43.2011H12.7859C12.8648 43.2011 12.9413 43.1733 13.0017 43.1225L15.1158 41.3488C15.2406 41.244 15.4227 41.244 15.5476 41.3488L17.5397 43.0199C17.6645 43.1247 17.8466 43.1247 17.9716 43.0199L19.9634 41.3488C20.0882 41.244 20.2702 41.244 20.3952 41.3488L22.387 43.0199C22.5118 43.1247 22.6939 43.1247 22.8188 43.0199L24.8109 41.3488C24.9357 41.244 25.1178 41.244 25.2428 41.3488L27.3568 43.1225C27.4173 43.1733 27.4937 43.2011 27.5727 43.2011H33.0498C34.4117 46.0593 37.3263 48.0348 40.7031 48.0348C45.5988 48.0348 49.5249 43.8831 49.1525 38.9084C48.8382 34.7068 45.4074 31.3419 41.2008 31.1015ZM42.7666 41.6436C41.3932 41.8166 40.2382 40.6616 40.4114 39.2881C40.5293 38.3524 41.285 37.5967 42.2209 37.4788C43.5944 37.3058 44.7493 38.4607 44.5762 39.8342C44.4581 40.77 43.7024 41.5257 42.7666 41.6436Z" fill="#FFA91A"/>
<path d="M34.3078 36.0444C34.2485 36.0444 34.1887 36.0288 34.1343 35.9957C33.9756 35.8996 33.9247 35.6932 34.0207 35.5345C35.4297 33.2057 37.9903 31.759 40.7035 31.759C41.131 31.759 41.56 31.7941 41.9788 31.8633C42.1617 31.8936 42.2856 32.0664 42.2554 32.2495C42.2253 32.4324 42.0528 32.5572 41.8692 32.5261C41.4868 32.463 41.0946 32.4309 40.7037 32.4309C38.2243 32.4309 35.8838 33.7535 34.5957 35.8822C34.5324 35.9868 34.4213 36.0444 34.3078 36.0444ZM43.3407 32.912C43.301 32.912 43.2605 32.9049 43.2212 32.89C43.1839 32.8759 43.1466 32.8619 43.1092 32.8485C42.9345 32.7858 42.8438 32.5933 42.9065 32.4188C42.9691 32.2441 43.1619 32.1538 43.3361 32.2161C43.3776 32.231 43.4191 32.2463 43.4602 32.2619C43.6338 32.3279 43.7208 32.5219 43.6548 32.6955C43.6035 32.8297 43.476 32.912 43.3407 32.912Z" fill="#FFC91D"/>
<path d="M45.7964 32.7886C46.8642 34.2064 47.4977 35.9697 47.4977 37.8814C47.4977 42.5613 43.704 46.3551 39.0241 46.3551C37.1132 46.3551 35.3507 45.7222 33.9336 44.6551C35.4799 46.7073 37.9363 48.0348 40.7037 48.0348C45.3837 48.0348 49.1774 44.241 49.1774 39.5611C49.1774 36.7928 47.8495 34.3351 45.7964 32.7886Z" fill="#F79219"/>
<path d="M46.259 33.1656C47.5525 34.6533 48.3373 36.5951 48.3373 38.7212C48.3373 43.4012 44.5435 47.1949 39.8636 47.1949C37.7381 47.1949 35.7962 46.4118 34.3088 45.119C35.8622 46.905 38.1505 48.0347 40.7034 48.0347C45.3834 48.0347 49.1771 44.241 49.1771 39.5611C49.1773 37.0073 48.0458 34.7192 46.259 33.1656Z" fill="#EF7816"/>
<g clip-path="url(#clip0_6507_46)">
<path d="M1.55273 18.7066L12.5006 24.9609L1.55273 6.19592V18.7066Z" fill="url(#paint0_linear_6507_46)"/>
<path d="M12.5006 -0.0605469L1.55273 6.19581H23.4463L12.5006 -0.0605469Z" fill="url(#paint1_linear_6507_46)"/>
<path d="M12.4985 24.9609L23.4443 18.7066V6.19592L12.4985 24.9609Z" fill="url(#paint2_linear_6507_46)"/>
<path d="M1.55273 6.19592L12.5006 24.9609L23.4463 6.19592H1.55273Z" fill="url(#paint3_linear_6507_46)"/>
<g clip-path="url(#clip1_6507_46)">
<path d="M13.6571 8.87866H16.5427C16.841 12.1277 17.1393 15.3695 17.4375 18.6167H15.4558C15.2966 16.8147 15.1374 15.0091 14.9764 13.198C14.9435 13.1962 14.916 13.1908 14.8904 13.1908C14.5921 13.1908 14.2939 13.1908 13.9974 13.1908C13.9334 13.1908 13.9005 13.2034 13.8785 13.2686C13.5729 14.2194 13.2655 15.1684 12.9563 16.1192C12.7824 16.6517 12.6049 17.1841 12.4219 17.7347C12.3982 17.6604 12.3799 17.6025 12.3597 17.5427C12.1054 16.773 11.8492 16.0051 11.593 15.2354C11.3771 14.5835 11.1575 13.9315 10.9453 13.2795C10.9233 13.2125 10.8977 13.189 10.8245 13.189C10.5299 13.1944 10.2353 13.189 9.9407 13.1908C9.90959 13.1908 9.88031 13.1944 9.84372 13.1962C9.69001 15.0054 9.53631 16.8093 9.3826 18.6185H7.42285C7.67903 15.3731 7.93337 12.1331 8.19138 8.87866C9.08983 8.87866 9.98278 8.87866 10.8757 8.87866C10.9453 8.87866 11.0148 8.87866 11.0843 8.87866H13.6589H13.6571ZM13.8693 9.42198C13.8712 9.22276 13.6973 9.04709 13.4961 9.0489C13.3131 9.0489 13.1319 9.22638 13.1264 9.41111C13.1209 9.59403 13.3076 9.78419 13.4961 9.78419C13.6919 9.78419 13.8675 9.61576 13.8693 9.42198ZM11.4192 9.42198C11.4412 9.22819 11.2582 9.05252 11.0606 9.0489C10.8611 9.04709 10.6909 9.21914 10.6891 9.41654C10.6891 9.61214 10.8593 9.78419 11.0587 9.786C11.249 9.78781 11.4174 9.61757 11.4192 9.42198V9.42198Z" fill="white"/>
<path d="M10.511 14.1268C10.9977 15.6046 11.4918 17.1096 11.9877 18.62H10.1853C10.2951 17.1096 10.4031 15.6028 10.511 14.1268Z" fill="white"/>
<path d="M14.3076 14.1577C14.4119 15.6011 14.5199 17.1079 14.6278 18.6183H12.8474C13.3396 17.1133 13.8337 15.6047 14.3076 14.1577Z" fill="white"/>
<path d="M13.7822 8.93006H13.6566H13.6562H13.6558H13.6553H13.6549H13.6545H13.6541H13.6537H13.6533H13.6528H13.6524H13.652H13.6516H13.6512H13.6507H13.6503H13.6499H13.6495H13.6491H13.6487H13.6482H13.6478H13.6474H13.647H13.6466H13.6461H13.6457H13.6453H13.6449H13.6445H13.6441H13.6436H13.6432H13.6428H13.6424H13.642H13.6415H13.6411H13.6407H13.6403H13.6399H13.6395H13.639H13.6386H13.6382H13.6378H13.6374H13.6369H13.6365H13.6361H13.6357H13.6353H13.6349H13.6344H13.634H13.6336H13.6332H13.6328H13.6323H13.6319H13.6315H13.6311H13.6307H13.6303H13.6298H13.6294H13.629H13.6286H13.6282H13.6277H13.6273H13.6269H13.6265H13.6261H13.6257H13.6252H13.6248H13.6244H13.624H13.6236H13.6231H13.6227H13.6223H13.6219H13.6215H13.6211H13.6206H13.6202H13.6198H13.6194H13.619H13.6185H13.6181H13.6177H13.6173H13.6169H13.6164H13.616H13.6156H13.6152H13.6148H13.6144H13.6139H13.6135H13.6131H13.6127H13.6123H13.6118H13.6114H13.611H13.6106H13.6102H13.6097H13.6093H13.6089H13.6085H13.6081H13.6077H13.6072H13.6068H13.6064H13.606H13.6056H13.6051H13.6047H13.6043H13.6039H13.6035H13.603H13.6026H13.6022H13.6018H13.6014H13.601H13.6005H13.6001H13.5997H13.5993H13.5989H13.5984H13.598H13.5976H13.5972H13.5968H13.5963H13.5959H13.5955H13.5951H13.5947H13.5943H13.5938H13.5934H13.593H13.5926H13.5922H13.5917H13.5913H13.5909H13.5905H13.5901H13.5896H13.5892H13.5888H13.5884H13.588H13.5875H13.5871H13.5867H13.5863H13.5859H13.5854H13.585H13.5846H13.5842H13.5838H13.5834H13.5829H13.5825H13.5821H13.5817H13.5813H13.5808H13.5804H13.58H13.5796H13.5792H13.5787H13.5783H13.5779H13.5775H13.5771H13.5766H13.5762H13.5758H13.5754H13.575H13.5745H13.5741H13.5737H13.5733H13.5729H13.5724H13.572H13.5716H13.5712H13.5708H13.5703H13.5699H13.5695H13.5691H13.5687H13.5682H13.5678H13.5674H13.567H13.5666H13.5661H13.5657H13.5653H13.5649H13.5645H13.564H13.5636H13.5632H13.5628H13.5624H13.5619H13.5615H13.5611H13.5607H13.5603H13.5598H13.5594H13.559H13.5586H13.5582H13.5577H13.5573H13.5569H13.5565H13.5561H13.5556H13.5552H13.5548H13.5544H13.554H13.5535H13.5531H13.5527H13.5523H13.5519H13.5514H13.551H13.5506H13.5502H13.5497H13.5493H13.5489H13.5485H13.5481H13.5476H13.5472H13.5468H13.5464H13.546H13.5455H13.5451H13.5447H13.5443H13.5439H13.5434H13.543H13.5426H13.5422H13.5417H13.5413H13.5409H13.5405H13.5401H13.5396H13.5392H13.5388H13.5384H13.538H13.5375H13.5371H13.5367H13.5363H13.5358H13.5354H13.535H13.5346H13.5342H13.5337H13.5333H13.5329H13.5325H13.5321H13.5316H13.5312H13.5308H13.5304H13.5299H13.5295H13.5291H13.5287H13.5283H13.5278H13.5274H13.527H13.5266H13.5261H13.5257H13.5253H13.5249H13.5245H13.524H13.5236H13.5232H13.5228H13.5223H13.5219H13.5215H13.5211H13.5207H13.5202H13.5198H13.5194H13.519H13.5185H13.5181H13.5177H13.5173H13.5169H13.5164H13.516H13.5156H13.5152H13.5147H13.5143H13.5139H13.5135H13.5131H13.5126H13.5122H13.5118H13.5114H13.5109H13.5105H13.5101H13.5097H13.5092H13.5088H13.5084H13.508H13.5075H13.5071H13.5067H13.5063H13.5059H13.5054H13.505H13.5046H13.5042H13.5037H13.5033H13.5029H13.5025H13.502H13.5016H13.5012H13.5008H13.5003H13.4999H13.4995H13.4991H13.4987H13.4982H13.4978H13.4974H13.497H13.4965H13.4961H13.4957H13.4953H13.4948H13.4944H13.494H13.4936H13.4931H13.4927H13.4923H13.4919H13.4914H13.491H13.4906H13.4902H13.4897H13.4893H13.4889H13.4885H13.488H13.4876H13.4872H13.4868H13.4863H13.4859H13.4855H13.4851H13.4846H13.4842H13.4838H13.4834H13.4829H13.4825H13.4821H13.4817H13.4812H13.4808H13.4804H13.48H13.4795H13.4791H13.4787H13.4783H13.4778H13.4774H13.477H13.4766H13.4761H13.4757H13.4753H13.4749H13.4744H13.474H13.4736H13.4732H13.4727H13.4723H13.4719H13.4715H13.471H13.4706H13.4702H13.4698H13.4693H13.4689H13.4685H13.468H13.4676H13.4672H13.4668H13.4663H13.4659H13.4655H13.4651H13.4646H13.4642H13.4638H13.4634H13.4629H13.4625H13.4621H13.4616H13.4612H13.4608H13.4604H13.4599H13.4595H13.4591H13.4587H13.4582H13.4578H13.4574H13.4569H13.4565H13.4561H13.4557H13.4552H13.4548H13.4544H13.454H13.4535H13.4531H13.4527H13.4522H13.4518H13.4514H13.451H13.4505H13.4501H13.4497H13.4493H13.4488H13.4484H13.448H13.4475H13.4471H13.4467H13.4463H13.4458H13.4454H13.445H13.4445H13.4441H13.4437H13.4433H13.4428H13.4424H13.442H13.4415H13.4411H13.4407H13.3879L13.389 8.87728C13.3981 8.46301 13.3582 8.05261 13.2641 7.64958C13.1953 7.35761 13.0986 7.0827 12.9233 6.84255C12.7324 6.58378 12.4635 6.4602 12.2015 6.46656C11.9397 6.47292 11.6804 6.60914 11.5081 6.8795C11.4106 7.03393 11.3372 7.21056 11.2814 7.38886L11.2321 7.37342M13.7822 8.93006L10.9961 7.24589C10.8308 7.78066 10.7997 8.32864 10.8218 8.87867L10.8238 8.92825H10.8734H10.8738H10.8742H10.8747H10.8751H10.8755H10.8759H10.8763H10.8767H10.8771H10.8775H10.8779H10.8783H10.8787H10.8791H10.8795H10.8799H10.8804H10.8808H10.8812H10.8816H10.882H10.8824H10.8828H10.8832H10.8836H10.884H10.8844H10.8848H10.8852H10.8857H10.8861H10.8865H10.8869H10.8873H10.8877H10.8881H10.8885H10.8889H10.8893H10.8897H10.8901H10.8905H10.8909H10.8914H10.8918H10.8922H10.8926H10.893H10.8934H10.8938H10.8942H10.8946H10.895H10.8954H10.8958H10.8962H10.8967H10.8971H10.8975H10.8979H10.8983H10.8987H10.8991H10.8995H10.8999H10.9003H10.9007H10.9011H10.9015H10.9019H10.9024H10.9028H10.9032H10.9036H10.904H10.9044H10.9048H10.9052H10.9056H10.906H10.9064H10.9068H10.9072H10.9077H10.9081H10.9085H10.9089H10.9093H10.9097H10.9101H10.9105H10.9109H10.9113H10.9117H10.9121H10.9125H10.9129H10.9134H10.9138H10.9142H10.9146H10.915H10.9154H10.9158H10.9162H10.9166H10.917H10.9174H10.9178H10.9182H10.9187H10.9191H10.9195H10.9199H10.9203H10.9207H10.9211H10.9215H10.9219H10.9223H10.9227H10.9231H10.9235H10.9239H10.9244H10.9248H10.9252H10.9256H10.926H10.9264H10.9268H10.9272H10.9276H10.928H10.9284H10.9288H10.9292H10.9297H10.9301H10.9305H10.9309H10.9313H10.9317H10.9321H10.9325H10.9329H10.9333H10.9337H10.9341H10.9345H10.9349H10.9354H10.9358H10.9362H10.9366H10.937H10.9374H10.9378H10.9382H10.9386H10.939H10.9394H10.9398H10.9402H10.9407H10.9411H10.9415H10.9419H10.9423H10.9427H10.9431H10.9435H10.9439H10.9443H10.9447H10.9451H10.9455H10.946H10.9464H10.9468H10.9472H10.9476H10.948H10.9484H10.9488H10.9492H10.9496H10.95H10.9504H10.9508H10.9512H10.9517H10.9521H10.9525H10.9529H10.9533H10.9537H10.9541H10.9545H10.9549H10.9553H10.9557H10.9561H10.9565H10.957H10.9574H10.9578H10.9582H10.9586H10.959H10.9594H10.9598H10.9602H10.9606H10.961H10.9614H10.9618H10.9622H10.9627H10.9631H10.9635H10.9639H10.9643H10.9647H10.9651H10.9655H10.9659H10.9663H10.9667H10.9671H10.9675H10.968H10.9684H10.9688H10.9692H10.9696H10.97H10.9704H10.9708H10.9712H10.9716H10.972H10.9724H10.9728H10.9732H10.9737H10.9741H10.9745H10.9749H10.9753H10.9757H10.9761H10.9765H10.9769H10.9773H10.9777H10.9781H10.9785H10.979H10.9794H10.9798H10.9802H10.9806H10.981H10.9814H10.9818H10.9822H10.9826H10.983H10.9834H10.9838H10.9842H10.9847H10.9851H10.9855H10.9859H10.9863H10.9867H10.9871H10.9875H10.9879H10.9883H10.9887H10.9891H10.9895H10.99H10.9904H10.9908H10.9912H10.9916H10.992H10.9924H10.9928H10.9932H10.9936H10.994H10.9944H10.9948H10.9952H10.9957H10.9961H10.9965H10.9969H10.9973H10.9977H10.9981H10.9985H10.9989H10.9993H10.9997H11.0001H11.0005H11.001H11.0014H11.0018H11.0022H11.0026H11.003H11.0034H11.0038H11.0042H11.0046H11.005H11.0054H11.0058H11.0062H11.0067H11.0071H11.0075H11.0079H11.0083H11.0087H11.0091H11.0095H11.0099H11.0103H11.0107H11.0111H11.0115H11.012H11.0124H11.0128H11.0132H11.0136H11.014H11.0144H11.0148H11.0152H11.0156H11.016H11.0164H11.0168H11.0172H11.0177H11.0181H11.0185H11.0189H11.0193H11.0197H11.0201H11.0205H11.0209H11.0213H11.0217H11.0221H11.0225H11.023H11.0234H11.0238H11.0242H11.0246H11.025H11.0254H11.0258H11.0262H11.0266H11.027H11.0274H11.0278H11.0282H11.0287H11.0291H11.0295H11.0299H11.0303H11.0307H11.0311H11.0315H11.0319H11.0323H11.0327H11.0331H11.0335H11.034H11.0344H11.0348H11.0352H11.0356H11.036H11.0364H11.0368H11.0372H11.0376H11.038H11.0384H11.0388H11.0393H11.0397H11.0401H11.0405H11.0409H11.0413H11.0417H11.0421H11.0425H11.0429H11.0433H11.0437H11.0441H11.0445H11.045H11.0454H11.0458H11.0462H11.0466H11.047H11.0474H11.0478H11.0482H11.0486H11.049H11.0494H11.0498H11.0503H11.0507H11.0511H11.0515H11.0519H11.0523H11.0527H11.0531H11.0535H11.0539H11.0543H11.0547H11.0551H11.0555H11.056H11.0564H11.0568H11.0572H11.0576H11.058H11.0584H11.0588H11.0592H11.0596H11.06H11.0604H11.0608H11.0613H11.0617H11.0621H11.0625H11.0629H11.0633H11.0637H11.0641H11.0645H11.0649H11.0653H11.0657H11.0661H11.0665H11.067H11.0674H11.0678H11.0682H11.0686H11.069H11.0694H11.0698H11.0702H11.0706H11.071H11.0714H11.0718H11.0723H11.0727H11.0731H11.0735H11.0739H11.0743H11.0747H11.0751H11.0755H11.0759H11.0763H11.0767H11.0771H11.0775H11.078H11.0784H11.0788H11.0792H11.0796H11.08H11.0804H11.0808H11.0812H11.0816H11.082H11.1358L11.1336 8.87454C11.1136 8.36958 11.1321 7.86939 11.2814 7.38874L11.2321 7.37342M13.7822 8.93006L13.7048 8.85345M13.7822 8.93006L13.4416 8.82675M11.2321 7.37342C11.0854 7.8458 11.0633 8.33508 11.0801 8.82494M11.2321 7.37342C11.2888 7.19232 11.3638 7.01121 11.4645 6.85184L11.0801 8.82494M11.0801 8.82494H11.0804H11.0808H11.0812H11.0816H11.082V8.87659L11.0304 8.87864C11.0304 8.87796 11.0304 8.87728 11.0303 8.87659M11.0801 8.82494L11.0303 8.87659M13.4416 8.82675C13.4464 8.42591 13.4057 8.02855 13.3144 7.63784L13.4416 8.82675ZM13.4416 8.82675H13.4415H13.4411H13.4407V8.8784H13.4407L13.4923 8.87953C13.4923 8.87916 13.4923 8.87878 13.4923 8.8784H13.6031C13.6032 8.87912 13.6032 8.87984 13.6033 8.88055L13.6047 8.89975L13.6184 8.9133L13.6203 8.91511L13.6566 8.8784V8.87645L13.6587 8.87629L13.7063 8.87263C13.7058 8.86624 13.7053 8.85985 13.7048 8.85345M13.7048 8.85345C13.6979 8.76207 13.6921 8.66989 13.6862 8.57729C13.6712 8.3414 13.656 8.10282 13.6236 7.86802L13.6236 7.86794C13.5699 7.48323 13.4639 7.10584 13.2463 6.76783C13.1314 6.5885 12.9965 6.43316 12.8286 6.32893C12.6597 6.22405 12.4602 6.17269 12.2204 6.19738L12.2257 6.24876M13.7048 8.85345L13.6566 8.87475V8.82675H13.6562H13.6558H13.6553H13.6549H13.6545H13.6541H13.6537H13.6533H13.6528H13.6524H13.652H13.6516H13.6512H13.651C13.645 8.74414 13.6398 8.66133 13.6345 8.57847C13.6195 8.34342 13.6046 8.10791 13.5724 7.87508C13.5194 7.49476 13.4151 7.12531 13.2028 6.7957C12.9777 6.44435 12.6831 6.20167 12.2257 6.24876M12.2257 6.24876C12.1891 6.25238 12.1507 6.25238 12.1122 6.24876C11.856 6.22522 11.6584 6.33931 11.4809 6.50412C11.2577 6.71239 11.1333 6.9768 11.0454 7.26114M12.2257 6.24876L12.2206 6.19736C12.1875 6.20064 12.1524 6.20066 12.1171 6.19733L12.117 6.19732C11.84 6.17187 11.6285 6.29661 11.4458 6.46627L11.4457 6.46635C11.2132 6.68329 11.0852 6.95735 10.9961 7.24589L11.0454 7.26114M11.0454 7.26114C10.8826 7.78815 10.8515 8.32966 10.8734 8.87659M11.0454 7.26114L10.8734 8.87659M10.8734 8.87659H11.0303M10.8734 8.87659H11.0303" fill="white" stroke="white" stroke-width="0.103306"/>
<path d="M13.8707 9.42178C13.8689 9.61556 13.6932 9.7858 13.4974 9.78399C13.309 9.78399 13.1223 9.59383 13.1278 9.41092C13.1333 9.22619 13.3144 9.04871 13.4974 9.04871C13.6987 9.04871 13.8725 9.22257 13.8707 9.42178ZM13.4956 9.70793C13.6639 9.70793 13.7939 9.58659 13.7975 9.42178C13.8012 9.25698 13.6731 9.12658 13.5066 9.12477C13.3401 9.12477 13.2083 9.24792 13.2047 9.41092C13.2028 9.57572 13.3309 9.70612 13.4956 9.70793Z" fill="white"/>
<path d="M11.422 9.41997C11.422 9.61556 11.2537 9.7858 11.0615 9.78399C10.8621 9.78218 10.6901 9.61194 10.6919 9.41453C10.6919 9.21713 10.8639 9.04508 11.0634 9.04689C11.261 9.0487 11.444 9.22437 11.422 9.41997V9.41997ZM11.056 9.70611C11.2244 9.70611 11.3543 9.58477 11.358 9.41997C11.3616 9.25697 11.2317 9.12658 11.067 9.12295C10.9005 9.12114 10.7706 9.24429 10.7669 9.4091C10.7633 9.5739 10.8895 9.7043 11.056 9.7043V9.70611Z" fill="white"/>
</g>
</g>
<defs>
<linearGradient id="paint0_linear_6507_46" x1="7.03649" y1="25.2373" x2="7.03648" y2="6.19592" gradientUnits="userSpaceOnUse">
<stop stop-color="#039D55"/>
<stop offset="1" stop-color="#00CA6B"/>
</linearGradient>
<linearGradient id="paint1_linear_6507_46" x1="12.5192" y1="6.28797" x2="12.5192" y2="-0.0605469" gradientUnits="userSpaceOnUse">
<stop stop-color="#00CA6B"/>
<stop offset="1" stop-color="#039D55"/>
</linearGradient>
<linearGradient id="paint2_linear_6507_46" x1="17.9812" y1="25.2373" x2="17.9812" y2="6.19592" gradientUnits="userSpaceOnUse">
<stop stop-color="#039D55"/>
<stop offset="1" stop-color="#00CA6B"/>
</linearGradient>
<linearGradient id="paint3_linear_6507_46" x1="12.5192" y1="25.2373" x2="12.5192" y2="6.19592" gradientUnits="userSpaceOnUse">
<stop stop-color="#00CA6B"/>
<stop offset="1" stop-color="#039D55"/>
</linearGradient>
<clipPath id="clip0_6507_46">
<rect width="25" height="25" fill="white"/>
</clipPath>
<clipPath id="clip1_6507_46">
<rect width="10.0207" height="12.7066" fill="white" transform="translate(7.37305 5.91565)"/>
</clipPath>
</defs>
</svg>
