<svg width="50" height="50" viewBox="0 0 50 50" fill="none" xmlns="http://www.w3.org/2000/svg">
<path d="M22.5542 35.921V21.1265C22.5542 20.941 22.4037 20.7905 22.2183 20.7905C22.0328 20.7905 21.8823 20.941 21.8823 21.1265V35.921H22.5542Z" fill="#2266D3"/>
<path d="M22.2182 21.4624C23.0157 21.4624 23.6622 20.8159 23.6622 20.0184C23.6622 19.2209 23.0157 18.5743 22.2182 18.5743C21.4207 18.5743 20.7742 19.2209 20.7742 20.0184C20.7742 20.8159 21.4207 21.4624 22.2182 21.4624Z" fill="#FFC91D"/>
<path d="M22.7278 18.6689C22.7878 18.8277 22.8222 18.999 22.8222 19.1787C22.8222 19.9762 22.1757 20.6228 21.3782 20.6228C21.1985 20.6228 21.0271 20.5885 20.8684 20.5284C21.0747 21.0739 21.6002 21.4626 22.218 21.4626C23.0156 21.4626 23.6621 20.8161 23.6621 20.0186C23.6621 19.4008 23.2734 18.875 22.7278 18.6689Z" fill="#FFA91A"/>
<path d="M27.1304 35.921V28.4116L28.6785 27.2247C28.7615 27.1613 28.8101 27.0627 28.8101 26.9582V23.9028C28.8101 23.7174 28.6596 23.5669 28.4741 23.5669C28.2887 23.5669 28.1382 23.7174 28.1382 23.9028V26.7924L26.59 27.9793C26.507 28.0429 26.4585 28.1414 26.4585 28.2458V35.9208L27.1304 35.921Z" fill="#2266D3"/>
<path d="M28.4741 24.2388C29.2716 24.2388 29.9181 23.5922 29.9181 22.7947C29.9181 21.9972 29.2716 21.3507 28.4741 21.3507C27.6765 21.3507 27.03 21.9972 27.03 22.7947C27.03 23.5922 27.6765 24.2388 28.4741 24.2388Z" fill="#FFC91D"/>
<path d="M28.9839 21.4451C29.0439 21.6038 29.0783 21.7751 29.0783 21.9549C29.0783 22.7524 28.4318 23.3989 27.6343 23.3989C27.4546 23.3989 27.2832 23.3646 27.1245 23.3045C27.3308 23.85 27.8564 24.2387 28.4741 24.2387C29.2717 24.2387 29.9182 23.5922 29.9182 22.7947C29.9182 22.1769 29.5295 21.6513 28.9839 21.4451Z" fill="#FFA91A"/>
<path d="M32.0105 35.921V30.7152L34.2206 29.1893C34.3115 29.1265 34.3658 29.0232 34.3658 28.9129V20.1172C34.3658 19.9318 34.2153 19.7812 34.0298 19.7812C33.8444 19.7812 33.6939 19.9318 33.6939 20.1172V28.7365L31.4838 30.2623C31.3929 30.3252 31.3386 30.4285 31.3386 30.5388V35.9209L32.0105 35.921Z" fill="#2266D3"/>
<path d="M34.0297 20.4531C34.8272 20.4531 35.4737 19.8066 35.4737 19.0091C35.4737 18.2116 34.8272 17.5651 34.0297 17.5651C33.2322 17.5651 32.5857 18.2116 32.5857 19.0091C32.5857 19.8066 33.2322 20.4531 34.0297 20.4531Z" fill="#FFC91D"/>
<path d="M34.5393 17.6594C34.5993 17.8182 34.6337 17.9895 34.6337 18.1692C34.6337 18.9667 33.9872 19.6132 33.1897 19.6132C33.01 19.6132 32.8387 19.579 32.6799 19.5188C32.8862 20.0644 33.4118 20.4531 34.0296 20.4531C34.8271 20.4531 35.4736 19.8066 35.4736 19.0091C35.4736 18.3913 35.0849 17.8657 34.5393 17.6594Z" fill="#FFA91A"/>
<path d="M15.7577 27.2247L17.3059 28.4116V35.921H17.9778V28.246C17.9778 28.1415 17.9291 28.0431 17.8463 27.9794L16.2981 26.7926V23.9028C16.2981 23.7174 16.1476 23.5669 15.9622 23.5669C15.7767 23.5669 15.6262 23.7174 15.6262 23.9028V26.9582C15.6262 27.0627 15.6749 27.1613 15.7577 27.2247Z" fill="#2266D3"/>
<path d="M15.9621 24.2388C16.7596 24.2388 17.4061 23.5922 17.4061 22.7947C17.4061 21.9972 16.7596 21.3507 15.9621 21.3507C15.1646 21.3507 14.5181 21.9972 14.5181 22.7947C14.5181 23.5922 15.1646 24.2388 15.9621 24.2388Z" fill="#FFC91D"/>
<path d="M16.472 21.4451C16.5319 21.6038 16.5664 21.7751 16.5664 21.9549C16.5664 22.7524 15.9198 23.3989 15.1223 23.3989C14.9426 23.3989 14.7713 23.3646 14.6125 23.3045C14.8188 23.85 15.3444 24.2387 15.9622 24.2387C16.7597 24.2387 17.4062 23.5922 17.4062 22.7947C17.4062 22.1769 17.0175 21.6513 16.472 21.4451Z" fill="#FFA91A"/>
<path d="M10.2159 29.1892L12.4261 30.715V35.9209H13.0979V30.5388C13.0979 30.4285 13.0437 30.3252 12.9528 30.2623L10.7427 28.7365V20.1172C10.7427 19.9318 10.5922 19.7812 10.4067 19.7812C10.2213 19.7812 10.0708 19.9318 10.0708 20.1172V28.9129C10.0708 29.0232 10.1249 29.1265 10.2159 29.1892Z" fill="#2266D3"/>
<path d="M10.4067 20.4531C11.2042 20.4531 11.8507 19.8066 11.8507 19.0091C11.8507 18.2116 11.2042 17.5651 10.4067 17.5651C9.60916 17.5651 8.96265 18.2116 8.96265 19.0091C8.96265 19.8066 9.60916 20.4531 10.4067 20.4531Z" fill="#FFC91D"/>
<path d="M10.9165 17.6594C10.9765 17.8182 11.0109 17.9895 11.0109 18.1692C11.0109 18.9667 10.3644 19.6132 9.56691 19.6132C9.38719 19.6132 9.21586 19.579 9.05713 19.5188C9.26339 20.0644 9.78897 20.4531 10.4068 20.4531C11.2043 20.4531 11.8508 19.8066 11.8508 19.0091C11.8506 18.3913 11.4619 17.8657 10.9165 17.6594Z" fill="#FFA91A"/>
<path d="M41.2008 31.1015C37.6147 30.8966 34.4784 32.9235 33.0502 35.9209H11.3887C11.2984 35.9209 11.2117 35.9573 11.1485 36.022L7.9185 39.3263C7.79084 39.4568 7.79084 39.6654 7.9185 39.7959L11.1485 43.1C11.2117 43.1647 11.2984 43.2011 11.3887 43.2011H12.7859C12.8648 43.2011 12.9413 43.1733 13.0017 43.1225L15.1158 41.3488C15.2406 41.244 15.4227 41.244 15.5476 41.3488L17.5397 43.0199C17.6645 43.1247 17.8466 43.1247 17.9716 43.0199L19.9634 41.3488C20.0882 41.244 20.2702 41.244 20.3952 41.3488L22.387 43.0199C22.5118 43.1247 22.6939 43.1247 22.8188 43.0199L24.8109 41.3488C24.9357 41.244 25.1178 41.244 25.2428 41.3488L27.3568 43.1225C27.4173 43.1733 27.4937 43.2011 27.5727 43.2011H33.0498C34.4117 46.0593 37.3263 48.0348 40.7031 48.0348C45.5988 48.0348 49.5249 43.8831 49.1525 38.9084C48.8382 34.7068 45.4074 31.3419 41.2008 31.1015ZM42.7666 41.6436C41.3932 41.8166 40.2382 40.6616 40.4114 39.2881C40.5293 38.3524 41.285 37.5967 42.2209 37.4788C43.5944 37.3058 44.7493 38.4607 44.5762 39.8342C44.4581 40.77 43.7024 41.5257 42.7666 41.6436Z" fill="#FFA91A"/>
<path d="M34.3078 36.0444C34.2485 36.0444 34.1887 36.0288 34.1343 35.9957C33.9756 35.8996 33.9247 35.6932 34.0207 35.5345C35.4297 33.2057 37.9903 31.759 40.7035 31.759C41.131 31.759 41.56 31.7941 41.9788 31.8633C42.1617 31.8936 42.2856 32.0664 42.2554 32.2495C42.2253 32.4324 42.0528 32.5572 41.8692 32.5261C41.4868 32.463 41.0946 32.4309 40.7037 32.4309C38.2243 32.4309 35.8838 33.7535 34.5957 35.8822C34.5324 35.9868 34.4213 36.0444 34.3078 36.0444ZM43.3407 32.912C43.301 32.912 43.2605 32.9049 43.2212 32.89C43.1839 32.8759 43.1466 32.8619 43.1092 32.8485C42.9345 32.7858 42.8438 32.5933 42.9065 32.4188C42.9691 32.2441 43.1619 32.1538 43.3361 32.2161C43.3776 32.231 43.4191 32.2463 43.4602 32.2619C43.6338 32.3279 43.7208 32.5219 43.6548 32.6955C43.6035 32.8297 43.476 32.912 43.3407 32.912Z" fill="#FFC91D"/>
<path d="M45.7964 32.7886C46.8642 34.2064 47.4977 35.9697 47.4977 37.8814C47.4977 42.5613 43.704 46.3551 39.0241 46.3551C37.1132 46.3551 35.3507 45.7222 33.9336 44.6551C35.4799 46.7073 37.9363 48.0348 40.7037 48.0348C45.3837 48.0348 49.1774 44.241 49.1774 39.5611C49.1774 36.7928 47.8495 34.3351 45.7964 32.7886Z" fill="#F79219"/>
<path d="M46.259 33.1656C47.5525 34.6533 48.3373 36.5951 48.3373 38.7212C48.3373 43.4012 44.5435 47.1949 39.8636 47.1949C37.7381 47.1949 35.7962 46.4118 34.3088 45.119C35.8622 46.905 38.1505 48.0347 40.7034 48.0347C45.3834 48.0347 49.1771 44.241 49.1771 39.5611C49.1773 37.0073 48.0458 34.7192 46.259 33.1656Z" fill="#EF7816"/>
<g clip-path="url(#clip0_6507_19)">
<path d="M1.55273 18.7563L12.5006 25.0105L1.55273 6.24573L1.55273 18.7563Z" fill="url(#paint0_linear_6507_19)"/>
<path d="M12.5009 -0.010498L1.55298 6.24581L23.4467 6.24581L12.5009 -0.010498Z" fill="url(#paint1_linear_6507_19)"/>
<path d="M12.498 25.0105L23.4439 18.7563V6.24573L12.498 25.0105Z" fill="url(#paint2_linear_6507_19)"/>
<path d="M1.55273 6.24573L12.5006 25.0105L23.4464 6.24573L1.55273 6.24573Z" fill="url(#paint3_linear_6507_19)"/>
<path d="M17.2601 10.8724H16.0937L15.9683 10.5241L15.7674 9.97659C15.6961 9.80206 15.6242 9.62829 15.4995 9.47307C15.1062 8.8676 14.4585 8.5 13.7388 8.5L11.2599 8.5C10.5453 8.5 9.89688 8.86838 9.50428 9.47307C9.3746 9.62829 9.30335 9.80206 9.23138 9.97659L8.91003 10.8724H7.74362C7.57832 10.8724 7.47073 11.0084 7.50707 11.1875L7.61394 11.691C7.64957 11.8069 7.74362 11.8849 7.8505 11.8849H8.24382C7.97591 12.1173 7.81488 12.4903 7.81488 12.8973V13.9098C7.81488 14.2635 7.94028 14.5732 8.11841 14.8056V15.9532C8.11841 15.9702 8.11841 15.9872 8.12055 16.0034C8.14193 16.2884 8.37421 16.5 8.63785 16.5H9.48433C9.74796 16.5 9.98025 16.2876 10.0016 16.0034C10.003 15.9864 10.0038 15.9702 10.0038 15.9532L10.0038 15.2752H14.995V15.9532C14.995 15.971 14.9957 15.9888 14.9972 16.0057C15.02 16.2892 15.2515 16.5 15.5144 16.5H16.3609C16.6246 16.5 16.8569 16.2876 16.8782 16.0034C16.8797 15.9864 16.8804 15.9702 16.8804 15.9532V14.8056C17.0635 14.5732 17.1889 14.2635 17.1889 13.9098V12.8973C17.1889 12.4903 17.0279 12.1173 16.7557 11.8849H17.1533C17.2601 11.8849 17.3499 11.8077 17.3855 11.691L17.4931 11.1875C17.5288 11.0084 17.4219 10.8724 17.2609 10.8724H17.2601ZM9.3746 13.9082C9.32116 13.9082 9.28553 13.9082 9.23138 13.8696C8.94566 13.831 8.749 13.5793 8.749 13.2302C8.749 12.8811 8.94566 12.644 9.23138 12.5861C9.28482 12.5668 9.32045 12.5668 9.3746 12.5668C9.75438 12.5668 10.3087 13.1723 10.3087 13.5793C10.3087 13.9862 9.75438 13.9082 9.3746 13.9082ZM15.969 13.7924C15.875 13.8696 15.7503 13.9082 15.6249 13.9082C15.2494 13.9082 14.6908 13.9662 14.6908 13.5793C14.6908 13.1723 15.2494 12.5668 15.6249 12.5668C15.7503 12.5668 15.875 12.6054 15.969 12.6633C16.1479 12.7599 16.2548 12.9537 16.2548 13.2302C16.2548 13.5067 16.1479 13.6951 15.969 13.7916V13.7924Z" fill="white"/>
</g>
<defs>
<linearGradient id="paint0_linear_6507_19" x1="7.02667" y1="6.24573" x2="7.02667" y2="25.0105" gradientUnits="userSpaceOnUse">
<stop stop-color="#00A08D"/>
<stop offset="1" stop-color="#00665A"/>
</linearGradient>
<linearGradient id="paint1_linear_6507_19" x1="12.4998" y1="-0.010498" x2="12.4998" y2="8.59999" gradientUnits="userSpaceOnUse">
<stop stop-color="#00665A"/>
<stop offset="1" stop-color="#00A08D"/>
</linearGradient>
<linearGradient id="paint2_linear_6507_19" x1="17.971" y1="6.24573" x2="17.971" y2="25.0105" gradientUnits="userSpaceOnUse">
<stop stop-color="#00A08D"/>
<stop offset="1" stop-color="#00665A"/>
</linearGradient>
<linearGradient id="paint3_linear_6507_19" x1="12.4996" y1="-7.15004" x2="12.4996" y2="25.0105" gradientUnits="userSpaceOnUse">
<stop stop-color="#00665A"/>
<stop offset="1" stop-color="#00A08D"/>
</linearGradient>
<clipPath id="clip0_6507_19">
<rect width="25" height="25" fill="white"/>
</clipPath>
</defs>
</svg>
