<svg width="14" height="14" viewBox="0 0 14 14" fill="none" xmlns="http://www.w3.org/2000/svg">
<g clip-path="url(#clip0_13766_443)">
<path d="M13.8291 13.0044L10.3472 9.52245C11.296 8.36197 11.7626 6.88117 11.6502 5.38636C11.5379 3.89155 10.8554 2.49709 9.74375 1.49142C8.63214 0.485748 7.17651 -0.0541959 5.67795 -0.0167273C4.1794 0.0207412 2.75257 0.632756 1.6926 1.69272C0.632634 2.75269 0.0206192 4.17952 -0.0168494 5.67807C-0.054318 7.17663 0.485626 8.63226 1.4913 9.74388C2.49697 10.8555 3.89143 11.538 5.38624 11.6504C6.88105 11.7627 8.36184 11.2961 9.52233 10.3473L13.0042 13.8292C13.1143 13.9355 13.2616 13.9943 13.4146 13.9929C13.5675 13.9916 13.7138 13.9303 13.822 13.8221C13.9301 13.7139 13.9915 13.5676 13.9928 13.4147C13.9941 13.2617 13.9353 13.1144 13.8291 13.0044ZM5.83333 10.5001C4.91035 10.5001 4.0081 10.2264 3.24067 9.71364C2.47324 9.20086 1.8751 8.47203 1.52189 7.61931C1.16868 6.76658 1.07627 5.82827 1.25633 4.92303C1.43639 4.01778 1.88085 3.18626 2.5335 2.53362C3.18614 1.88097 4.01766 1.43652 4.92291 1.25645C5.82815 1.07639 6.76646 1.1688 7.61918 1.52201C8.47191 1.87522 9.20074 2.47336 9.71352 3.24079C10.2263 4.00822 10.5 4.91047 10.5 5.83345C10.4986 7.0707 10.0065 8.25688 9.13163 9.13175C8.25676 10.0066 7.07058 10.4987 5.83333 10.5001Z" fill="#334257" fill-opacity="0.7"/>
</g>
<defs>
<clipPath id="clip0_13766_443">
<rect width="14" height="14" fill="white"/>
</clipPath>
</defs>
</svg>
