<svg width="30" height="30" viewBox="0 0 30 30" fill="none" xmlns="http://www.w3.org/2000/svg">
<g clip-path="url(#clip0_5241_7679)">
<path class="text--primary" d="M14.7577 1C9.36898 1 5 5.3684 5 10.7577C5 14.0607 8.6658 19.7298 11.5035 23.6238C13.2959 26.0826 14.7577 27.8335 14.7577 27.8335C14.7621 27.8273 24.5154 16.1557 24.5154 10.7576C24.5154 5.3684 20.147 1 14.7577 1Z" fill="currentColor"/>
<path d="M14.7575 3.43945C10.8843 3.43945 7.74414 6.57961 7.74414 10.4528C7.74414 12.4299 8.56258 14.2162 9.87865 15.4908H19.6363C20.953 14.2162 21.7708 12.4299 21.7708 10.4528C21.7708 6.57955 18.6313 3.43945 14.7575 3.43945Z" fill="white"/>
<path d="M19.6366 15.0263V15.4904C16.917 18.1246 12.5984 18.1246 9.87891 15.4904V15.0263C9.87891 13.0052 11.517 11.3672 13.538 11.3672H15.9775C17.9985 11.3672 19.6366 13.0052 19.6366 15.0263Z" fill="white"/>
<path d="M14.7578 11.3671C16.1051 11.3671 17.1972 10.275 17.1972 8.92772C17.1972 7.58045 16.1051 6.48828 14.7578 6.48828C13.4105 6.48828 12.3184 7.58045 12.3184 8.92772C12.3184 10.275 13.4105 11.3671 14.7578 11.3671Z" fill="white"/>
<g clip-path="url(#clip1_5241_7679)">
<path d="M15.0563 14.9415C14.999 14.9415 14.941 14.9362 14.8826 14.9262C14.4166 14.8445 14.0913 14.4569 14.0913 13.9839V11.6079H11.715C11.242 11.6079 10.8546 11.2822 10.773 10.8165C10.6916 10.3515 10.944 9.91486 11.3866 9.75352L18.7673 6.93652L15.9446 14.3155C15.8056 14.6992 15.4533 14.9415 15.056 14.9415H15.0563Z" fill="#1E2124" fill-opacity="0.6"/>
</g>
</g>
<defs>
<clipPath id="clip0_5241_7679">
<rect width="30" height="30" fill="white"/>
</clipPath>
<clipPath id="clip1_5241_7679">
<rect width="8" height="8" fill="white" transform="translate(10.7578 6.94141)"/>
</clipPath>
</defs>
</svg>
