<svg width="18" height="19" viewBox="0 0 18 19" fill="none" xmlns="http://www.w3.org/2000/svg">
<path d="M4.08106 2.28979C2.6643 2.28979 1.5 3.45409 1.5 4.87085V6.45874C1.5 7.8755 2.66431 9.03979 4.08106 9.03979H5.66894C7.08569 9.03979 8.25 7.8755 8.25 6.45874V4.87085C8.25 3.45409 7.0857 2.28979 5.66894 2.28979H4.08106ZM4.08106 3.78979H5.66894C6.28064 3.78979 6.75 4.25915 6.75 4.87085V6.45874C6.75 7.07044 6.28064 7.53979 5.66894 7.53979H4.08106C3.46936 7.53979 3 7.07044 3 6.45874V4.87085C3 4.25915 3.46936 3.78979 4.08106 3.78979Z" fill="#0177CD"/>
<path d="M12.3311 10.5398C10.9143 10.5398 9.75 11.7041 9.75 13.1208V14.7087C9.75 16.1255 10.9143 17.2898 12.3311 17.2898H13.9189C15.3357 17.2898 16.5 16.1255 16.5 14.7087V13.1208C16.5 11.7041 15.3357 10.5398 13.9189 10.5398H12.3311ZM12.3311 12.0398H13.9189C14.5306 12.0398 15 12.5091 15 13.1208V14.7087C15 15.3204 14.5306 15.7898 13.9189 15.7898H12.3311C11.7194 15.7898 11.25 15.3204 11.25 14.7087V13.1208C11.25 12.5091 11.7194 12.0398 12.3311 12.0398Z" fill="#0177CD"/>
<path d="M4.08106 10.5398C2.6643 10.5398 1.5 11.7041 1.5 13.1208V14.7087C1.5 16.1255 2.66431 17.2898 4.08106 17.2898H5.66894C7.08569 17.2898 8.25 16.1255 8.25 14.7087V13.1208C8.25 11.7041 7.0857 10.5398 5.66894 10.5398H4.08106ZM4.08106 12.0398H5.66894C6.28064 12.0398 6.75 12.5091 6.75 13.1208V14.7087C6.75 15.3204 6.28064 15.7898 5.66894 15.7898H4.08106C3.46936 15.7898 3 15.3204 3 14.7087V13.1208C3 12.5091 3.46936 12.0398 4.08106 12.0398Z" fill="#0177CD"/>
<path d="M13.125 2.28955C12.9261 2.28955 12.7353 2.36858 12.5947 2.50923C12.454 2.64988 12.375 2.84064 12.375 3.03955V4.91455H10.5C10.3011 4.91455 10.1103 4.99358 9.96967 5.13423C9.82902 5.27488 9.75 5.46564 9.75 5.66455C9.75 5.86346 9.82902 6.05424 9.96967 6.19489C10.1103 6.33555 10.3011 6.41455 10.5 6.41455H12.375V8.28955C12.375 8.48846 12.454 8.67924 12.5947 8.81989C12.7353 8.96055 12.9261 9.03955 13.125 9.03955C13.3239 9.03955 13.5147 8.96055 13.6553 8.81989C13.796 8.67924 13.875 8.48846 13.875 8.28955V6.41455H15.75C15.9489 6.41455 16.1397 6.33555 16.2803 6.19489C16.421 6.05424 16.5 5.86346 16.5 5.66455C16.5 5.46564 16.421 5.27488 16.2803 5.13423C16.1397 4.99358 15.9489 4.91455 15.75 4.91455H13.875V3.03955C13.875 2.84064 13.796 2.64988 13.6553 2.50923C13.5147 2.36858 13.3239 2.28955 13.125 2.28955Z" fill="#0177CD"/>
</svg>
