<svg width="30" height="30" viewBox="0 0 30 30" fill="none" xmlns="http://www.w3.org/2000/svg">
<g clip-path="url(#clip0_5241_7678)">
<path d="M14.9999 2.05859C9.61117 2.05859 5.24219 6.42699 5.24219 11.8163C5.24219 15.1193 8.90799 20.7884 11.7457 24.6823C13.5381 27.1412 14.9999 28.8921 14.9999 28.8921C15.0043 28.8859 24.7575 17.2143 24.7575 11.8162C24.7575 6.42699 20.3891 2.05859 14.9999 2.05859Z" fill="#0061CF"/>
<path d="M14.9996 4.49805C11.1265 4.49805 7.98633 7.6382 7.98633 11.5114C7.98633 13.4885 8.80477 15.2748 10.1208 16.5494H19.8785C21.1952 15.2748 22.013 13.4885 22.013 11.5114C22.013 7.63814 18.8735 4.49805 14.9996 4.49805Z" fill="white"/>
<path d="M19.8788 16.0851L19.8785 16.5494C17.1589 19.1836 12.8404 19.1835 10.1208 16.5494L10.1211 16.0851C10.1211 14.0641 11.7591 12.426 13.7802 12.426H16.2196C18.2407 12.426 19.8788 14.0641 19.8788 16.0851Z" fill="white"/>
<path d="M15 12.4262C16.3472 12.4262 17.4394 11.3341 17.4394 9.9868C17.4394 8.63954 16.3472 7.54736 15 7.54736C13.6527 7.54736 12.5605 8.63954 12.5605 9.9868C12.5605 11.3341 13.6527 12.4262 15 12.4262Z" fill="white"/>
<path d="M15 7C12.791 7 11 8.79093 11 10.9999C11 12.1275 11.4668 13.1463 12.2174 13.8732H17.7826C18.5335 13.1463 19 12.1275 19 10.9999C19 8.79089 17.2094 7 15 7Z" fill="#0061CF"/>
<path d="M17.7827 13.6085L17.7826 13.8732C16.2315 15.3756 13.7684 15.3756 12.2174 13.8732L12.2175 13.6085C12.2175 12.4558 13.1518 11.5216 14.3045 11.5216H15.6958C16.8485 11.5216 17.7827 12.4558 17.7827 13.6085Z" fill="#0061CF"/>
<path d="M15.0002 11.5217C15.7686 11.5217 16.3915 10.8988 16.3915 10.1304C16.3915 9.36202 15.7686 8.73912 15.0002 8.73912C14.2318 8.73912 13.6089 9.36202 13.6089 10.1304C13.6089 10.8988 14.2318 11.5217 15.0002 11.5217Z" fill="#0061CF"/>
</g>
<defs>
<clipPath id="clip0_5241_7678">
<rect width="20" height="27" fill="white" transform="translate(5 2)"/>
</clipPath>
</defs>
</svg>
